<svg width="40" height="40" viewBox="0 0 40 40" fill="none" xmlns="http://www.w3.org/2000/svg">
<path d="M27.2654 23.332C27.3987 22.232 27.4987 21.132 27.4987 19.9987C27.4987 18.8654 27.3987 17.7654 27.2654 16.6654H32.8987C33.1654 17.732 33.332 18.8487 33.332 19.9987C33.332 21.1487 33.1654 22.2654 32.8987 23.332M24.3154 32.5987C25.3154 30.7487 26.082 28.7487 26.6154 26.6654H31.532C29.9173 29.4458 27.3556 31.552 24.3154 32.5987ZM23.8987 23.332H16.0987C15.932 22.232 15.832 21.132 15.832 19.9987C15.832 18.8654 15.932 17.7487 16.0987 16.6654H23.8987C24.0487 17.7487 24.1654 18.8654 24.1654 19.9987C24.1654 21.132 24.0487 22.232 23.8987 23.332ZM19.9987 33.2654C18.6154 31.2654 17.4987 29.0487 16.8154 26.6654H23.182C22.4987 29.0487 21.382 31.2654 19.9987 33.2654ZM13.332 13.332H8.46536C10.0631 10.5438 12.6231 8.4341 15.6654 7.3987C14.6654 9.2487 13.9154 11.2487 13.332 13.332ZM8.46536 26.6654H13.332C13.9154 28.7487 14.6654 30.7487 15.6654 32.5987C12.6291 31.5525 10.0725 29.4457 8.46536 26.6654ZM7.0987 23.332C6.83203 22.2654 6.66536 21.1487 6.66536 19.9987C6.66536 18.8487 6.83203 17.732 7.0987 16.6654H12.732C12.5987 17.7654 12.4987 18.8654 12.4987 19.9987C12.4987 21.132 12.5987 22.232 12.732 23.332M19.9987 6.71536C21.382 8.71536 22.4987 10.9487 23.182 13.332H16.8154C17.4987 10.9487 18.6154 8.71536 19.9987 6.71536ZM31.532 13.332H26.6154C26.0929 11.268 25.3206 9.27554 24.3154 7.3987C27.382 8.4487 29.932 10.5654 31.532 13.332ZM19.9987 3.33203C10.782 3.33203 3.33203 10.832 3.33203 19.9987C3.33203 24.419 5.08798 28.6582 8.21358 31.7838C9.76123 33.3315 11.5985 34.5591 13.6206 35.3967C15.6427 36.2343 17.81 36.6654 19.9987 36.6654C24.419 36.6654 28.6582 34.9094 31.7838 31.7838C34.9094 28.6582 36.6654 24.419 36.6654 19.9987C36.6654 17.81 36.2343 15.6427 35.3967 13.6206C34.5591 11.5985 33.3315 9.76123 31.7838 8.21358C30.2362 6.66594 28.3988 5.43828 26.3768 4.60071C24.3547 3.76313 22.1874 3.33203 19.9987 3.33203Z" fill="white"/>
</svg>
