<svg width="40" height="40" viewBox="0 0 40 40" fill="none" xmlns="http://www.w3.org/2000/svg">
<path fill-rule="evenodd" clip-rule="evenodd" d="M24.9991 3.33203C26.3533 3.33195 27.6754 3.74426 28.7895 4.51409C29.9035 5.28393 30.7567 6.37478 31.2355 7.64148C31.7144 8.90818 31.7961 10.2907 31.4698 11.6049C31.1435 12.9192 30.4247 14.103 29.4091 14.9987C30.6514 16.0917 31.4427 17.6077 31.6294 19.2517C31.816 20.8958 31.3846 22.5506 30.419 23.8943C29.4534 25.2379 28.0226 26.1745 26.4048 26.5219C24.787 26.8692 23.0979 26.6025 21.6658 25.7737V29.9987C21.6657 31.1127 21.3865 32.2089 20.8537 33.1872C20.3208 34.1654 19.5513 34.9946 18.6155 35.5989C17.6797 36.2032 16.6073 36.5633 15.4965 36.6464C14.3856 36.7295 13.2716 36.5329 12.2563 36.0746C11.241 35.6163 10.3567 34.9109 9.68419 34.0228C9.01172 33.1347 8.57252 32.0922 8.40671 30.9906C8.2409 29.8891 8.35377 28.7635 8.73501 27.7168C9.11624 26.6701 9.75369 25.7356 10.5891 24.9987C9.87981 24.373 9.31175 23.6036 8.92267 22.7416C8.53359 21.8795 8.3324 20.9445 8.33245 19.9987C8.3324 19.0529 8.53359 18.1179 8.92267 17.2558C9.31175 16.3938 9.87981 15.6243 10.5891 14.9987C9.57348 14.103 8.8547 12.9192 8.52843 11.6049C8.20216 10.2907 8.28386 8.90818 8.76268 7.64148C9.24149 6.37478 10.0947 5.28393 11.2088 4.51409C12.3228 3.74426 13.6449 3.33195 14.9991 3.33203H24.9991ZM18.3324 26.6654H14.9991C14.3398 26.6654 13.6954 26.8609 13.1472 27.2271C12.599 27.5934 12.1718 28.114 11.9195 28.7231C11.6672 29.3322 11.6012 30.0024 11.7298 30.649C11.8584 31.2956 12.1759 31.8895 12.6421 32.3557C13.1083 32.8219 13.7022 33.1394 14.3488 33.268C14.9954 33.3966 15.6656 33.3306 16.2747 33.0783C16.8838 32.826 17.4044 32.3988 17.7707 31.8506C18.1369 31.3024 18.3324 30.658 18.3324 29.9987V26.6654ZM18.3324 16.6654H14.9991C14.1151 16.6654 13.2672 17.0166 12.6421 17.6417C12.017 18.2668 11.6658 19.1146 11.6658 19.9987C11.6658 20.8828 12.017 21.7306 12.6421 22.3557C13.2672 22.9808 14.1151 23.332 14.9991 23.332H18.3324V16.6654ZM24.9991 16.6654C24.1151 16.6654 23.2672 17.0166 22.6421 17.6417C22.017 18.2668 21.6658 19.1146 21.6658 19.9987C21.6658 20.8828 22.017 21.7306 22.6421 22.3557C23.2672 22.9808 24.1151 23.332 24.9991 23.332C25.8832 23.332 26.731 22.9808 27.3561 22.3557C27.9813 21.7306 28.3324 20.8828 28.3324 19.9987C28.3324 19.1146 27.9813 18.2668 27.3561 17.6417C26.731 17.0166 25.8832 16.6654 24.9991 16.6654ZM24.9991 6.66536H21.6658V13.332H24.9991C25.8641 13.3359 26.6967 13.0034 27.321 12.4047C27.9454 11.8061 28.3126 10.9882 28.345 10.1238C28.3775 9.25943 28.0727 8.41629 27.495 7.7725C26.9173 7.12871 26.1119 6.7347 25.2491 6.6737L24.9991 6.66536ZM18.3324 6.66536H14.9991C14.1151 6.66536 13.2672 7.01655 12.6421 7.64168C12.017 8.2668 11.6658 9.11464 11.6658 9.9987C11.6658 10.8828 12.017 11.7306 12.6421 12.3557C13.2672 12.9808 14.1151 13.332 14.9991 13.332H18.3324V6.66536Z" fill="white"/>
</svg>
