<svg width="690" height="544" viewBox="0 0 690 544" fill="none" xmlns="http://www.w3.org/2000/svg">
<path d="M0 369.5H324.054C324.054 360.827 324.054 355.505 324.054 346.832C330.928 252.605 336.463 210.521 361.018 166.703C377.599 139.967 385.567 132.917 395.518 130.924C401.413 110.406 398.569 100.319 384.429 84.0417C377.692 84.0417 373.915 84.0417 367.179 84.0417C367.607 91.1118 368.72 94.6079 372.107 100.081C357.861 95.9865 351.552 91.4992 347.464 80.3405C343.871 62.4725 343.881 53.5639 347.464 39.6265C355.728 13.9741 363.334 6.71375 384.429 5.0813C424.599 -4.36799 445.782 1.28268 480.536 35.9252C487.488 43.8813 490.222 48.3466 495.321 56.8998C491.746 56.5303 488.991 56.264 486.696 56.8998C488.624 59.3468 500.246 81.5335 505.179 93.9125C501.345 94.3339 494.089 95.1463 494.089 95.1463C494.089 95.1463 518.208 130.372 529.821 155.6C557.124 217.472 549.537 249.053 523.661 303.651L508.875 330.794H497.786C498.951 346.044 497.683 352.526 494.089 362.871L417.696 443.066L402.911 464.04L381.964 543H295.714V530.662L328.982 443.066H388.125M448.5 443.066H690" stroke="#AD3D3D"/>
</svg>
