<svg width="70" height="70" viewBox="0 0 70 70" fill="none" xmlns="http://www.w3.org/2000/svg">
<rect width="70" height="70" rx="35" fill="#0A66C2"/>
<g clip-path="url(#clip0_428_619)">
<path d="M14.582 20.0327C14.582 18.7188 15.0419 17.6349 15.9615 16.781C16.8812 15.927 18.0768 15.5 19.5482 15.5C20.9935 15.5 22.1627 15.9204 23.0561 16.7613C23.9758 17.6284 24.4356 18.7582 24.4356 20.1509C24.4356 21.4122 23.989 22.4632 23.0955 23.3041C22.1759 24.1712 20.9672 24.6047 19.4694 24.6047H19.43C17.9848 24.6047 16.8155 24.1712 15.9221 23.3041C15.0287 22.4369 14.582 21.3465 14.582 20.0327ZM15.0944 54.5203V28.1914H23.8444V54.5203H15.0944ZM28.6924 54.5203H37.4424V39.8187C37.4424 38.899 37.5475 38.1895 37.7577 37.6903C38.1256 36.7969 38.6839 36.0415 39.4328 35.424C40.1817 34.8065 41.1211 34.4977 42.251 34.4977C45.1939 34.4977 46.6654 36.4816 46.6654 40.4493V54.5203H55.4154V39.4245C55.4154 35.5356 54.4957 32.5861 52.6564 30.576C50.817 28.5659 48.3865 27.5608 45.3647 27.5608C41.975 27.5608 39.3343 29.0191 37.4424 31.9358V32.0146H37.403L37.4424 31.9358V28.1914H28.6924C28.7449 29.0323 28.7712 31.6467 28.7712 36.0349C28.7712 40.423 28.7449 46.5848 28.6924 54.5203Z" fill="white"/>
</g>
<defs>
<clipPath id="clip0_428_619">
<rect x="14.584" y="14.584" width="40.8333" height="40.8333" fill="white"/>
</clipPath>
</defs>
</svg>
