<svg width="70" height="70" viewBox="0 0 70 70" fill="none" xmlns="http://www.w3.org/2000/svg">
<path d="M17.7502 69.7524C13.5872 69.5631 11.3258 68.8703 9.82168 68.2836C7.82863 67.5077 6.4077 66.5839 4.91188 65.0902C3.41605 63.5965 2.49027 62.1755 1.71843 60.1825C1.13175 58.6783 0.438969 56.4169 0.249651 52.254C0.0416085 47.754 0 46.4038 0 35.0031C0 23.6024 0.0457693 22.2543 0.24757 17.7502C0.436889 13.5872 1.13383 11.33 1.71635 9.82168C2.49235 7.82863 3.41814 6.4077 4.9098 4.9098C6.40354 3.41605 7.82447 2.48819 9.8196 1.71635C11.3237 1.12967 13.5852 0.436889 17.7481 0.24757C22.2501 0.0416085 23.6024 0 34.999 0C46.3997 0 47.7478 0.0457693 52.2519 0.24757C56.4148 0.436889 58.6721 1.13383 60.1804 1.71635C62.1734 2.48819 63.5944 3.41605 65.0902 4.9098C66.586 6.40354 67.5077 7.82655 68.2836 9.8196C68.8703 11.3237 69.5631 13.5852 69.7524 17.7481C69.9584 22.2522 70 23.6003 70 35.001C70 46.3976 69.9584 47.7499 69.7524 52.254C69.5631 56.4169 68.8662 58.6783 68.2836 60.1825C67.5077 62.1755 66.5839 63.5965 65.0902 65.0902C63.5965 66.5839 62.1734 67.5077 60.1804 68.2836C58.6763 68.8703 56.4148 69.5631 52.2519 69.7524C47.752 69.9584 46.3997 70 34.999 70C23.6024 70 22.2501 69.9605 17.7502 69.7524" fill="url(#paint0_radial_428_613)"/>
<path d="M27.0595 34.7514C27.0595 30.5017 30.5036 27.0557 34.7534 27.0557C39.0031 27.0557 42.4491 30.5017 42.4491 34.7514C42.4491 39.0012 39.0031 42.4472 34.7534 42.4472C30.5036 42.4472 27.0595 39.0012 27.0595 34.7514M22.8993 34.7514C22.8993 41.2985 28.2064 46.6055 34.7534 46.6055C41.3004 46.6055 46.6075 41.2985 46.6075 34.7514C46.6075 28.2044 41.3004 22.8973 34.7534 22.8973C28.2064 22.8973 22.8995 28.204 22.8995 34.7514M44.3067 22.4273C44.3065 22.9752 44.4687 23.5109 44.7729 23.9666C45.0772 24.4223 45.5097 24.7775 46.0158 24.9874C46.5219 25.1973 47.0789 25.2523 47.6163 25.1457C48.1537 25.039 48.6474 24.7754 49.035 24.3881C49.4226 24.0008 49.6866 23.5073 49.7937 22.97C49.9008 22.4326 49.8462 21.8756 49.6367 21.3693C49.4273 20.8631 49.0724 20.4303 48.6169 20.1257C48.1615 19.8211 47.6259 19.6584 47.078 19.6582H47.0769C46.3425 19.6585 45.6383 19.9504 45.1188 20.4696C44.5994 20.9888 44.3073 21.6929 44.3067 22.4273M25.4269 53.5426C23.1761 53.4401 21.9528 53.0652 21.1398 52.7485C20.062 52.3289 19.293 51.8291 18.4844 51.0217C17.6759 50.2142 17.1754 49.4459 16.7577 48.3681C16.4407 47.5555 16.0658 46.3318 15.9635 44.0811C15.8516 41.6477 15.8293 40.9167 15.8293 34.7518C15.8293 28.5869 15.8534 27.8579 15.9635 25.4225C16.066 23.1718 16.4437 21.9505 16.7577 21.1355C17.1773 20.0577 17.677 19.2886 18.4844 18.4801C19.2919 17.6715 20.0602 17.1711 21.1398 16.7533C21.9524 16.4364 23.1761 16.0615 25.4269 15.9592C27.8603 15.8472 28.5912 15.8249 34.7534 15.8249C40.9155 15.8249 41.6472 15.8487 44.0827 15.9595C46.3334 16.062 47.5547 16.4397 48.3697 16.7537C49.4475 17.1714 50.2166 17.673 51.0251 18.4805C51.8336 19.2879 52.3323 20.058 52.7519 21.1358C53.0688 21.9484 53.4437 23.1722 53.546 25.4229C53.6579 27.8583 53.6803 28.5873 53.6803 34.7522C53.6803 40.9171 53.6579 41.646 53.546 44.0814C53.4435 46.3322 53.0668 47.5555 52.7519 48.3685C52.3323 49.4463 51.8325 50.2153 51.0251 51.022C50.2177 51.8287 49.4475 52.3292 48.3697 52.7488C47.5571 53.0657 46.3334 53.4406 44.0827 53.543C41.6493 53.6549 40.9183 53.6772 34.7534 53.6772C28.5885 53.6772 27.8595 53.6549 25.4269 53.543M25.2357 11.8058C22.7782 11.9177 21.0988 12.3074 19.6323 12.8781C18.1143 13.4674 16.8277 14.258 15.5428 15.5409C14.258 16.8237 13.4694 18.1105 12.88 19.6303C12.3094 21.0978 11.9197 22.7762 11.8078 25.2338C11.694 27.6952 11.668 28.4822 11.668 34.7514C11.668 41.0207 11.694 41.8076 11.8078 44.2691C11.9197 46.7269 12.3094 48.4051 12.88 49.8726C13.4694 51.3905 14.2582 52.6798 15.5428 53.962C16.8275 55.2443 18.1125 56.0338 19.6323 56.6248C21.1016 57.1954 22.7782 57.5851 25.2357 57.697C27.6985 57.809 28.4841 57.8368 34.7534 57.8368C41.0226 57.8368 41.8096 57.8108 44.271 57.697C46.7288 57.5851 48.407 57.1954 49.8745 56.6248C51.3924 56.0338 52.6791 55.2448 53.964 53.962C55.2488 52.6792 56.0357 51.3905 56.6267 49.8726C57.1974 48.4051 57.5889 46.7267 57.699 44.2691C57.8109 41.8058 57.837 41.0207 57.837 34.7514C57.837 28.4822 57.8109 27.6952 57.699 25.2338C57.5871 22.776 57.1974 21.0969 56.6267 19.6303C56.0357 18.1124 55.2468 16.8257 53.964 15.5409C52.6812 14.256 51.3924 13.4674 49.8764 12.8781C48.407 12.3074 46.7286 11.9159 44.2729 11.8058C41.8111 11.6933 41.0245 11.666 34.7562 11.666C28.4878 11.666 27.6994 11.6921 25.2367 11.8058" fill="white"/>
<defs>
<radialGradient id="paint0_radial_428_613" cx="0" cy="0" r="1" gradientUnits="userSpaceOnUse" gradientTransform="translate(4.53033 68.4665) scale(88.874)">
<stop offset="0.09" stop-color="#FA8F21"/>
<stop offset="0.78" stop-color="#D82D7E"/>
</radialGradient>
</defs>
</svg>
