<svg width="70" height="70" viewBox="0 0 70 70" fill="none" xmlns="http://www.w3.org/2000/svg">
<rect width="70" height="70" rx="35" fill="#1D9BF0"/>
<path d="M28.5967 53.4582C44.1192 53.4582 52.6067 40.5957 52.6067 29.4482C52.6067 29.0807 52.6067 28.7132 52.5892 28.3632C54.2342 27.1732 55.6692 25.6857 56.8067 23.9882C55.3017 24.6532 53.6742 25.1082 51.9592 25.3182C53.7092 24.2682 55.0392 22.6232 55.6692 20.6457C54.0417 21.6082 52.2392 22.3082 50.3142 22.6932C48.7742 21.0482 46.5867 20.0332 44.1542 20.0332C39.4992 20.0332 35.7192 23.8132 35.7192 28.4682C35.7192 29.1332 35.7892 29.7807 35.9467 30.3932C28.9292 30.0432 22.7167 26.6832 18.5517 21.5732C17.8342 22.8157 17.4142 24.2682 17.4142 25.8082C17.4142 28.7307 18.9017 31.3207 21.1767 32.8257C19.7942 32.7907 18.4992 32.4057 17.3617 31.7757C17.3617 31.8107 17.3617 31.8457 17.3617 31.8807C17.3617 35.9757 20.2667 39.3707 24.1342 40.1582C23.4342 40.3507 22.6817 40.4557 21.9117 40.4557C21.3692 40.4557 20.8442 40.4032 20.3192 40.2982C21.3867 43.6582 24.5017 46.0907 28.1942 46.1607C25.3067 48.4182 21.6667 49.7657 17.7117 49.7657C17.0292 49.7657 16.3642 49.7307 15.6992 49.6432C19.3917 52.0582 23.8367 53.4582 28.5967 53.4582Z" fill="white"/>
</svg>
