<svg width="47" height="47" viewBox="0 0 47 47" fill="none" xmlns="http://www.w3.org/2000/svg">
<path d="M23.5096 22.9712C24.3804 22.9712 25.1246 22.6612 25.7421 22.041C26.3597 21.4209 26.6678 20.6748 26.6665 19.8027C26.6652 18.9306 26.3544 18.1864 25.7343 17.5702C25.1142 16.9539 24.368 16.6458 23.4959 16.6458C22.6238 16.6458 21.8797 16.9566 21.2634 17.578C20.6472 18.1994 20.3391 18.9456 20.3391 19.8164C20.3391 20.6872 20.6492 21.4313 21.2693 22.0489C21.8894 22.6664 22.6362 22.9745 23.5096 22.9732M23.5018 38.5341C27.1835 35.3303 30.0936 32.0723 32.2321 28.7601C34.3706 25.4479 35.4398 22.5822 35.4398 20.163C35.4398 16.5806 34.3059 13.6235 32.0382 11.2917C29.7678 8.96133 26.9224 7.79612 23.5018 7.79612C20.0812 7.79612 17.2358 8.96133 14.9654 11.2917C12.6951 13.6222 11.5612 16.5792 11.5638 20.163C11.5638 22.5809 12.6331 25.4466 14.7716 28.7601C16.9101 32.0736 19.8201 35.3316 23.5018 38.5341ZM23.5018 41.1622C18.8997 37.0928 15.4335 33.2975 13.1031 29.7765C10.7713 26.2554 9.60547 23.0509 9.60547 20.163C9.60547 16.0205 10.9541 12.6038 13.6514 9.91308C16.35 7.22103 19.6334 5.875 23.5018 5.875C27.3702 5.875 30.6536 7.22103 33.3522 9.91308C36.0495 12.6038 37.3981 16.0205 37.3981 20.163C37.3981 23.0509 36.2329 26.2554 33.9025 29.7765C31.5708 33.2975 28.1039 37.0928 23.5018 41.1622Z" fill="#AD3D3D"/>
</svg>
