<svg width="47" height="47" viewBox="0 0 47 47" fill="none" xmlns="http://www.w3.org/2000/svg">
<path d="M9.03967 37.2077C8.13753 37.2077 7.38488 36.9061 6.78171 36.3029C6.17854 35.6998 5.87631 34.9465 5.875 34.043V12.9557C5.875 12.0535 6.17724 11.3009 6.78171 10.6977C7.38618 10.0946 8.13818 9.79232 9.03771 9.79102H37.9623C38.8631 9.79102 39.6151 10.0933 40.2183 10.6977C40.8215 11.3022 41.1237 12.0548 41.125 12.9557V34.045C41.125 34.9458 40.8228 35.6985 40.2183 36.3029C39.6138 36.9074 38.8618 37.209 37.9623 37.2077H9.03967ZM23.5 23.7265L7.83333 13.4825V34.045C7.83333 34.3962 7.94626 34.6847 8.17212 34.9106C8.39799 35.1364 8.68717 35.2493 9.03967 35.2493H37.9623C38.3135 35.2493 38.602 35.1364 38.8279 34.9106C39.0537 34.6847 39.1667 34.3955 39.1667 34.043V13.4805L23.5 23.7265ZM23.5 21.541L38.5635 11.7493H8.4365L23.5 21.541ZM7.83333 13.4825V11.7493V34.045C7.83333 34.3962 7.94626 34.6847 8.17212 34.9106C8.39799 35.1364 8.68717 35.2493 9.03967 35.2493H7.83333V13.4825Z" fill="#AD3D3D"/>
</svg>
