<svg width="47" height="47" viewBox="0 0 47 47" fill="none" xmlns="http://www.w3.org/2000/svg">
<path d="M40.5338 29.7656L31.8645 25.8863C31.5285 25.7409 31.1614 25.6815 30.7967 25.7135C30.4319 25.7456 30.0808 25.8681 29.7753 26.0699C29.7508 26.0854 29.7275 26.1026 29.7055 26.1213L25.1524 30.0025C25.051 30.0643 24.936 30.1001 24.8175 30.1068C24.6991 30.1136 24.5807 30.091 24.4731 30.041C21.4915 28.6017 18.4053 25.5393 16.9659 22.5926C16.915 22.4858 16.8914 22.368 16.8971 22.2497C16.9029 22.1315 16.9379 22.0166 16.999 21.9152L20.8912 17.2868C20.9095 17.2647 20.926 17.2409 20.9426 17.217C21.1438 16.9119 21.2659 16.5615 21.2979 16.1974C21.33 15.8333 21.271 15.467 21.1262 15.1314L17.2395 6.47677C17.0518 6.03843 16.7271 5.6728 16.3139 5.43478C15.9008 5.19675 15.4215 5.09919 14.9482 5.15673C12.6378 5.46135 10.5173 6.59659 8.98276 8.35041C7.44821 10.1042 6.60456 12.3567 6.6094 14.6871C6.6094 28.8605 18.1391 40.3902 32.3125 40.3902C34.6429 40.395 36.8954 39.5514 38.6492 38.0168C40.403 36.4823 41.5383 34.3618 41.8429 32.0514C41.9 31.5802 41.8034 31.1032 41.5676 30.6913C41.3317 30.2795 40.9691 29.9548 40.5338 29.7656ZM40.3906 31.8678C40.1314 33.8244 39.1684 35.6197 37.6816 36.9179C36.1949 38.216 34.2862 38.9283 32.3125 38.9215C18.9506 38.9215 8.07815 28.049 8.07815 14.6871C8.07131 12.7134 8.78357 10.8047 10.0818 9.31797C11.3799 7.83123 13.1752 6.86821 15.1318 6.60896C15.1612 6.60719 15.1906 6.60719 15.2199 6.60896C15.3648 6.61019 15.5061 6.65426 15.626 6.7356C15.7459 6.81695 15.839 6.93194 15.8937 7.06611L19.7694 15.7207C19.8146 15.8265 19.8344 15.9414 19.827 16.0562C19.8197 16.171 19.7855 16.2825 19.7272 16.3817L15.8368 21.0082C15.8185 21.0321 15.8001 21.0541 15.7836 21.0798C15.5763 21.3968 15.4542 21.7618 15.4292 22.1397C15.4041 22.5175 15.4768 22.8955 15.6404 23.237C17.2358 26.5032 20.5258 29.7693 23.8287 31.3647C24.1725 31.5272 24.5527 31.5979 24.932 31.5699C25.3113 31.5419 25.6769 31.4162 25.9932 31.205L26.0612 31.1536L30.6198 27.2761C30.7173 27.2165 30.8276 27.181 30.9415 27.1724C31.0555 27.1637 31.1698 27.1823 31.2752 27.2265L39.9427 31.1114C40.089 31.1723 40.2116 31.2788 40.2923 31.4151C40.3731 31.5515 40.4076 31.7103 40.3906 31.8678Z" fill="#AD3D3D"/>
</svg>
