<svg width="693" height="210" viewBox="0 0 693 210" fill="none" xmlns="http://www.w3.org/2000/svg">
<path d="M35.942 136H12.842V33.1H62.492C68.092 33.1 73.242 34.45 77.942 37.15C82.742 39.75 86.542 43.4 89.342 48.1C92.142 52.8 93.542 58.05 93.542 63.85V64.75C93.542 70.45 92.142 75.75 89.342 80.65C86.642 85.45 82.892 89.25 78.092 92.05C73.392 94.85 68.192 96.25 62.492 96.25H35.942V136ZM35.942 78.1H57.092C60.892 78.1 64.042 76.85 66.542 74.35C69.042 71.75 70.292 68.75 70.292 65.35V64.45C70.292 60.95 69.042 57.95 66.542 55.45C64.142 52.85 60.992 51.55 57.092 51.55H35.942V78.1ZM167.178 115.75H126.228L119.028 136H96.6779L134.028 33.1H161.628L198.978 136H174.678L167.178 115.75ZM132.528 98.2H161.028C157.228 86.9 152.628 73.45 147.228 57.85H146.478L132.528 98.2ZM233.11 136H210.01V33.1H259.66C265.26 33.1 270.41 34.45 275.11 37.15C279.91 39.75 283.71 43.4 286.51 48.1C289.31 52.8 290.71 58.05 290.71 63.85V64.75C290.71 70.45 289.31 75.75 286.51 80.65C283.81 85.45 280.06 89.25 275.26 92.05C270.56 94.85 265.36 96.25 259.66 96.25H233.11V136ZM233.11 78.1H254.26C258.06 78.1 261.21 76.85 263.71 74.35C266.21 71.75 267.46 68.75 267.46 65.35V64.45C267.46 60.95 266.21 57.95 263.71 55.45C261.31 52.85 258.16 51.55 254.26 51.55H233.11V78.1ZM384.896 103.3C384.896 110.1 383.296 116.1 380.096 121.3C376.896 126.5 372.346 130.5 366.446 133.3C360.546 136.1 353.746 137.5 346.046 137.5H341.846C334.146 137.5 327.346 136.1 321.446 133.3C315.646 130.5 311.146 126.5 307.946 121.3C304.746 116.1 303.146 110.1 303.146 103.3V33.1H326.246V102.85C326.246 107.55 327.896 111.45 331.196 114.55C334.596 117.65 338.896 119.2 344.096 119.2C349.396 119.2 353.646 117.7 356.846 114.7C360.146 111.6 361.796 107.65 361.796 102.85V33.1H384.896V103.3ZM400.774 136V128.65L448.174 51.55H404.374V33.1H481.624V40.6L434.374 117.55H482.824V136H400.774ZM432.874 0.0999973H451.024V18.4H432.874V0.0999973ZM522.553 33.1V80.2L559.603 33.1H585.553L550.903 76.45C559.403 90.65 564.303 98.85 565.603 101.05L586.603 136H560.353L535.903 94.3L522.553 109.15V136H499.903V33.1H522.553ZM658.926 115.75H617.976L610.776 136H588.426L625.776 33.1H653.376L690.726 136H666.426L658.926 115.75ZM624.276 98.2H652.776C648.976 86.9 644.376 73.45 638.976 57.85H638.226L624.276 98.2Z" fill="#FFDAB9"/>
<path d="M35.942 136V141H40.942V136H35.942ZM12.842 136H7.84199V141H12.842V136ZM12.842 33.1V28.1H7.84199V33.1H12.842ZM77.942 37.15L75.4514 41.4855L75.5056 41.5167L75.5606 41.5465L77.942 37.15ZM89.342 80.65L85.0008 78.1693L84.9924 78.184L84.9841 78.1987L89.342 80.65ZM78.092 92.05L75.5726 87.7311L75.5527 87.7427L75.533 87.7545L78.092 92.05ZM35.942 96.25V91.25H30.942V96.25H35.942ZM35.942 78.1H30.942V83.1H35.942V78.1ZM66.542 74.35L70.0775 77.8855L70.1122 77.8509L70.1462 77.8155L66.542 74.35ZM66.542 55.45L62.868 58.8414L62.9358 58.9149L63.0065 58.9855L66.542 55.45ZM35.942 51.55V46.55H30.942V51.55H35.942ZM35.942 131H12.842V141H35.942V131ZM17.842 136V33.1H7.84199V136H17.842ZM12.842 38.1H62.492V28.1H12.842V38.1ZM62.492 38.1C67.2482 38.1 71.535 39.2357 75.4514 41.4855L80.4326 32.8145C74.9489 29.6643 68.9358 28.1 62.492 28.1V38.1ZM75.5606 41.5465C79.5669 43.7165 82.7063 46.7309 85.0465 50.659L93.6375 45.541C90.3776 40.0691 85.9171 35.7834 80.3234 32.7535L75.5606 41.5465ZM85.0465 50.659C87.3574 54.538 88.542 58.8945 88.542 63.85H98.542C98.542 57.2055 96.9266 51.062 93.6375 45.541L85.0465 50.659ZM88.542 63.85V64.75H98.542V63.85H88.542ZM88.542 64.75C88.542 69.589 87.3646 74.0327 85.0008 78.1693L93.6832 83.1307C96.9194 77.4673 98.542 71.311 98.542 64.75H88.542ZM84.9841 78.1987C82.7241 82.2164 79.6119 85.3748 75.5726 87.7311L80.6114 96.3689C86.172 93.1252 90.5599 88.6836 93.6999 83.1013L84.9841 78.1987ZM75.533 87.7545C71.6401 90.0736 67.3305 91.25 62.492 91.25V101.25C69.0534 101.25 75.1439 99.6264 80.651 96.3455L75.533 87.7545ZM62.492 91.25H35.942V101.25H62.492V91.25ZM30.942 96.25V136H40.942V96.25H30.942ZM35.942 83.1H57.092V73.1H35.942V83.1ZM57.092 83.1C62.1084 83.1 66.565 81.398 70.0775 77.8855L63.0065 70.8145C61.519 72.302 59.6756 73.1 57.092 73.1V83.1ZM70.1462 77.8155C73.4816 74.3467 75.292 70.1264 75.292 65.35H65.292C65.292 67.3736 64.6024 69.1533 62.9378 70.8845L70.1462 77.8155ZM75.292 65.35V64.45H65.292V65.35H75.292ZM75.292 64.45C75.292 59.6089 73.5045 55.3414 70.0775 51.9145L63.0065 58.9855C64.5795 60.5586 65.292 62.2911 65.292 64.45H75.292ZM70.216 52.0586C66.767 48.3221 62.2288 46.55 57.092 46.55V56.55C59.7551 56.55 61.517 57.3778 62.868 58.8414L70.216 52.0586ZM57.092 46.55H35.942V56.55H57.092V46.55ZM30.942 51.55V78.1H40.942V51.55H30.942ZM167.178 115.75L171.867 114.013L170.658 110.75H167.178V115.75ZM126.228 115.75V110.75H122.699L121.517 114.075L126.228 115.75ZM119.028 136V141H122.557L123.739 137.675L119.028 136ZM96.6779 136L91.978 134.294L89.5439 141H96.6779V136ZM134.028 33.1V28.1H130.524L129.328 31.394L134.028 33.1ZM161.628 33.1L166.328 31.394L165.132 28.1H161.628V33.1ZM198.978 136V141H206.112L203.678 134.294L198.978 136ZM174.678 136L169.989 137.737L171.198 141H174.678V136ZM132.528 98.2L127.802 96.5663L125.509 103.2H132.528V98.2ZM161.028 98.2V103.2H167.984L165.767 96.6063L161.028 98.2ZM147.228 57.85L151.953 56.2144L150.788 52.85H147.228V57.85ZM146.478 57.85V52.85H142.916L141.752 56.2163L146.478 57.85ZM167.178 110.75H126.228V120.75H167.178V110.75ZM121.517 114.075L114.317 134.325L123.739 137.675L130.939 117.425L121.517 114.075ZM119.028 131H96.6779V141H119.028V131ZM101.378 137.706L138.728 34.806L129.328 31.394L91.978 134.294L101.378 137.706ZM134.028 38.1H161.628V28.1H134.028V38.1ZM156.928 34.806L194.278 137.706L203.678 134.294L166.328 31.394L156.928 34.806ZM198.978 131H174.678V141H198.978V131ZM179.367 134.263L171.867 114.013L162.489 117.487L169.989 137.737L179.367 134.263ZM132.528 103.2H161.028V93.2H132.528V103.2ZM165.767 96.6063C161.961 85.2882 157.356 71.8235 151.953 56.2144L142.503 59.4855C147.9 75.0765 152.495 88.5118 156.289 99.7937L165.767 96.6063ZM147.228 52.85H146.478V62.85H147.228V52.85ZM141.752 56.2163L127.802 96.5663L137.253 99.8337L151.203 59.4837L141.752 56.2163ZM233.11 136V141H238.11V136H233.11ZM210.01 136H205.01V141H210.01V136ZM210.01 33.1V28.1H205.01V33.1H210.01ZM275.11 37.15L272.619 41.4855L272.674 41.5167L272.729 41.5465L275.11 37.15ZM286.51 80.65L282.169 78.1693L282.16 78.184L282.152 78.1987L286.51 80.65ZM275.26 92.05L272.741 87.7311L272.721 87.7427L272.701 87.7545L275.26 92.05ZM233.11 96.25V91.25H228.11V96.25H233.11ZM233.11 78.1H228.11V83.1H233.11V78.1ZM263.71 74.35L267.245 77.8855L267.28 77.8509L267.314 77.8155L263.71 74.35ZM263.71 55.45L260.036 58.8414L260.104 58.9149L260.174 58.9855L263.71 55.45ZM233.11 51.55V46.55H228.11V51.55H233.11ZM233.11 131H210.01V141H233.11V131ZM215.01 136V33.1H205.01V136H215.01ZM210.01 38.1H259.66V28.1H210.01V38.1ZM259.66 38.1C264.416 38.1 268.703 39.2357 272.619 41.4855L277.601 32.8145C272.117 29.6643 266.104 28.1 259.66 28.1V38.1ZM272.729 41.5465C276.735 43.7165 279.874 46.7309 282.214 50.659L290.805 45.541C287.546 40.0691 283.085 35.7834 277.491 32.7535L272.729 41.5465ZM282.214 50.659C284.525 54.538 285.71 58.8945 285.71 63.85H295.71C295.71 57.2055 294.095 51.062 290.805 45.541L282.214 50.659ZM285.71 63.85V64.75H295.71V63.85H285.71ZM285.71 64.75C285.71 69.589 284.533 74.0327 282.169 78.1693L290.851 83.1307C294.087 77.4673 295.71 71.311 295.71 64.75H285.71ZM282.152 78.1987C279.892 82.2164 276.78 85.3748 272.741 87.7311L277.779 96.3689C283.34 93.1252 287.728 88.6836 290.868 83.1013L282.152 78.1987ZM272.701 87.7545C268.808 90.0736 264.499 91.25 259.66 91.25V101.25C266.221 101.25 272.312 99.6264 277.819 96.3455L272.701 87.7545ZM259.66 91.25H233.11V101.25H259.66V91.25ZM228.11 96.25V136H238.11V96.25H228.11ZM233.11 83.1H254.26V73.1H233.11V83.1ZM254.26 83.1C259.276 83.1 263.733 81.398 267.245 77.8855L260.174 70.8145C258.687 72.302 256.844 73.1 254.26 73.1V83.1ZM267.314 77.8155C270.65 74.3467 272.46 70.1264 272.46 65.35H262.46C262.46 67.3736 261.77 69.1533 260.106 70.8845L267.314 77.8155ZM272.46 65.35V64.45H262.46V65.35H272.46ZM272.46 64.45C272.46 59.6089 270.672 55.3414 267.245 51.9145L260.174 58.9855C261.747 60.5586 262.46 62.2911 262.46 64.45H272.46ZM267.384 52.0586C263.935 48.3221 259.397 46.55 254.26 46.55V56.55C256.923 56.55 258.685 57.3778 260.036 58.8414L267.384 52.0586ZM254.26 46.55H233.11V56.55H254.26V46.55ZM228.11 51.55V78.1H238.11V51.55H228.11ZM366.446 133.3L368.59 137.817L366.446 133.3ZM321.446 133.3L319.272 137.803L319.287 137.81L319.302 137.817L321.446 133.3ZM307.946 121.3L303.688 123.92L307.946 121.3ZM303.146 33.1V28.1H298.146V33.1H303.146ZM326.246 33.1H331.246V28.1H326.246V33.1ZM331.196 114.55L327.773 118.194L327.8 118.22L327.827 118.245L331.196 114.55ZM356.846 114.7L360.266 118.348L360.269 118.344L356.846 114.7ZM361.796 33.1V28.1H356.796V33.1H361.796ZM384.896 33.1H389.896V28.1H384.896V33.1ZM379.896 103.3C379.896 109.283 378.499 114.355 375.838 118.68L384.354 123.92C388.093 117.845 389.896 110.917 389.896 103.3H379.896ZM375.838 118.68C373.18 122.998 369.392 126.367 364.302 128.783L368.59 137.817C375.299 134.633 380.612 130.002 384.354 123.92L375.838 118.68ZM364.302 128.783C359.182 131.213 353.136 132.5 346.046 132.5V142.5C354.356 142.5 361.91 140.987 368.59 137.817L364.302 128.783ZM346.046 132.5H341.846V142.5H346.046V132.5ZM341.846 132.5C334.756 132.5 328.71 131.213 323.59 128.783L319.302 137.817C325.982 140.987 333.536 142.5 341.846 142.5V132.5ZM323.62 128.797C318.631 126.389 314.875 123.02 312.204 118.68L303.688 123.92C307.416 129.98 312.661 134.611 319.272 137.803L323.62 128.797ZM312.204 118.68C309.543 114.355 308.146 109.283 308.146 103.3H298.146C298.146 110.917 299.949 117.845 303.688 123.92L312.204 118.68ZM308.146 103.3V33.1H298.146V103.3H308.146ZM303.146 38.1H326.246V28.1H303.146V38.1ZM321.246 33.1V102.85H331.246V33.1H321.246ZM321.246 102.85C321.246 108.871 323.424 114.109 327.773 118.194L334.619 110.906C332.368 108.791 331.246 106.229 331.246 102.85H321.246ZM327.827 118.245C332.269 122.295 337.824 124.2 344.096 124.2V114.2C339.968 114.2 336.922 113.005 334.565 110.855L327.827 118.245ZM344.096 124.2C350.386 124.2 355.953 122.391 360.266 118.348L353.426 111.052C351.339 113.009 348.405 114.2 344.096 114.2V124.2ZM360.269 118.344C364.641 114.237 366.796 108.937 366.796 102.85H356.796C356.796 106.363 355.651 108.963 353.423 111.056L360.269 118.344ZM366.796 102.85V33.1H356.796V102.85H366.796ZM361.796 38.1H384.896V28.1H361.796V38.1ZM379.896 33.1V103.3H389.896V33.1H379.896ZM400.774 136H395.774V141H400.774V136ZM400.774 128.65L396.514 126.031L395.774 127.236V128.65H400.774ZM448.174 51.55L452.433 54.1686L457.117 46.55H448.174V51.55ZM404.374 51.55H399.374V56.55H404.374V51.55ZM404.374 33.1V28.1H399.374V33.1H404.374ZM481.624 33.1H486.624V28.1H481.624V33.1ZM481.624 40.6L485.884 43.2163L486.624 42.0126V40.6H481.624ZM434.374 117.55L430.113 114.934L425.436 122.55H434.374V117.55ZM482.824 117.55H487.824V112.55H482.824V117.55ZM482.824 136V141H487.824V136H482.824ZM432.874 0.0999985V-4.9H427.874V0.0999985H432.874ZM451.024 0.0999985H456.024V-4.9H451.024V0.0999985ZM451.024 18.4V23.4H456.024V18.4H451.024ZM432.874 18.4H427.874V23.4H432.874V18.4ZM405.774 136V128.65H395.774V136H405.774ZM405.033 131.269L452.433 54.1686L443.914 48.9314L396.514 126.031L405.033 131.269ZM448.174 46.55H404.374V56.55H448.174V46.55ZM409.374 51.55V33.1H399.374V51.55H409.374ZM404.374 38.1H481.624V28.1H404.374V38.1ZM476.624 33.1V40.6H486.624V33.1H476.624ZM477.363 37.9837L430.113 114.934L438.634 120.166L485.884 43.2163L477.363 37.9837ZM434.374 122.55H482.824V112.55H434.374V122.55ZM477.824 117.55V136H487.824V117.55H477.824ZM482.824 131H400.774V141H482.824V131ZM432.874 5.1H451.024V-4.9H432.874V5.1ZM446.024 0.0999985V18.4H456.024V0.0999985H446.024ZM451.024 13.4H432.874V23.4H451.024V13.4ZM437.874 18.4V0.0999985H427.874V18.4H437.874ZM522.553 33.1H527.553V28.1H522.553V33.1ZM522.553 80.2H517.553V94.6434L526.482 83.2913L522.553 80.2ZM559.603 33.1V28.1H557.174L555.673 30.0087L559.603 33.1ZM585.553 33.1L589.458 36.2218L595.95 28.1H585.553V33.1ZM550.903 76.45L546.997 73.3282L544.83 76.0396L546.612 79.018L550.903 76.45ZM565.603 101.05L561.298 103.594L561.307 103.609L561.317 103.625L565.603 101.05ZM586.603 136V141H595.44L590.888 133.425L586.603 136ZM560.353 136L556.039 138.529L557.488 141H560.353V136ZM535.903 94.3L540.216 91.771L536.757 85.8712L532.184 90.9572L535.903 94.3ZM522.553 109.15L518.834 105.807L517.553 107.233V109.15H522.553ZM522.553 136V141H527.553V136H522.553ZM499.903 136H494.903V141H499.903V136ZM499.903 33.1V28.1H494.903V33.1H499.903ZM517.553 33.1V80.2H527.553V33.1H517.553ZM526.482 83.2913L563.532 36.1913L555.673 30.0087L518.623 77.1087L526.482 83.2913ZM559.603 38.1H585.553V28.1H559.603V38.1ZM581.647 29.9782L546.997 73.3282L554.808 79.5718L589.458 36.2218L581.647 29.9782ZM546.612 79.018C555.117 93.2262 560.007 101.409 561.298 103.594L569.907 98.5063C568.598 96.2906 563.688 88.0738 555.193 73.882L546.612 79.018ZM561.317 103.625L582.317 138.575L590.888 133.425L569.888 98.4748L561.317 103.625ZM586.603 131H560.353V141H586.603V131ZM564.666 133.471L540.216 91.771L531.589 96.829L556.039 138.529L564.666 133.471ZM532.184 90.9572L518.834 105.807L526.271 112.493L539.621 97.6427L532.184 90.9572ZM517.553 109.15V136H527.553V109.15H517.553ZM522.553 131H499.903V141H522.553V131ZM504.903 136V33.1H494.903V136H504.903ZM499.903 38.1H522.553V28.1H499.903V38.1ZM658.926 115.75L663.615 114.013L662.406 110.75H658.926V115.75ZM617.976 115.75V110.75H614.447L613.265 114.075L617.976 115.75ZM610.776 136V141H614.305L615.487 137.675L610.776 136ZM588.426 136L583.726 134.294L581.292 141H588.426V136ZM625.776 33.1V28.1H622.272L621.076 31.394L625.776 33.1ZM653.376 33.1L658.076 31.394L656.88 28.1H653.376V33.1ZM690.726 136V141H697.86L695.426 134.294L690.726 136ZM666.426 136L661.737 137.737L662.946 141H666.426V136ZM624.276 98.2L619.55 96.5663L617.257 103.2H624.276V98.2ZM652.776 98.2V103.2H659.733L657.515 96.6063L652.776 98.2ZM638.976 57.85L643.701 56.2144L642.536 52.85H638.976V57.85ZM638.226 57.85V52.85H634.664L633.5 56.2163L638.226 57.85ZM658.926 110.75H617.976V120.75H658.926V110.75ZM613.265 114.075L606.065 134.325L615.487 137.675L622.687 117.425L613.265 114.075ZM610.776 131H588.426V141H610.776V131ZM593.126 137.706L630.476 34.806L621.076 31.394L583.726 134.294L593.126 137.706ZM625.776 38.1H653.376V28.1H625.776V38.1ZM648.676 34.806L686.026 137.706L695.426 134.294L658.076 31.394L648.676 34.806ZM690.726 131H666.426V141H690.726V131ZM671.115 134.263L663.615 114.013L654.237 117.487L661.737 137.737L671.115 134.263ZM624.276 103.2H652.776V93.2H624.276V103.2ZM657.515 96.6063C653.709 85.2882 649.104 71.8235 643.701 56.2144L634.251 59.4855C639.648 75.0765 644.243 88.5118 648.037 99.7937L657.515 96.6063ZM638.976 52.85H638.226V62.85H638.976V52.85ZM633.5 56.2163L619.55 96.5663L629.002 99.8337L642.952 59.4837L633.5 56.2163Z" fill="#750505"/>
<path d="M10.6357 182.4C10.6357 184.933 11.3191 186.9 12.6857 188.3C14.0524 189.667 15.7857 190.35 17.8857 190.35C20.2524 190.35 22.0024 189.717 23.1357 188.45C24.2691 187.15 24.8357 185.167 24.8357 182.5H31.8857C31.8857 185.433 31.2857 187.967 30.0857 190.1C28.9191 192.2 27.3024 193.8 25.2357 194.9C23.1691 195.967 20.8357 196.5 18.2357 196.5H17.5357C14.6691 196.5 12.1024 195.917 9.83574 194.75C7.56908 193.583 5.78574 191.867 4.48574 189.6C3.18574 187.3 2.53574 184.533 2.53574 181.3V176.4C2.53574 173.267 3.18574 170.55 4.48574 168.25C5.78574 165.95 7.55241 164.2 9.78574 163C12.0524 161.8 14.5691 161.2 17.3357 161.2H18.0357C20.7024 161.2 23.0691 161.733 25.1357 162.8C27.2357 163.833 28.8857 165.417 30.0857 167.55C31.2857 169.65 31.8857 172.233 31.8857 175.3H24.5357C24.5357 172.7 23.9524 170.733 22.7857 169.4C21.6524 168.033 20.0024 167.35 17.8357 167.35C15.7357 167.35 14.0024 168.05 12.6357 169.45C11.3024 170.817 10.6357 172.767 10.6357 175.3V182.4ZM40.6166 196V161.7H64.7666L63.9166 167.85H48.2166V175.35H62.8666V181.5H48.2166V189.85H64.0666L64.9166 196H40.6166ZM83.2494 180.2C82.8827 179.667 82.3827 178.883 81.7494 177.85C81.1161 176.783 80.6994 176.083 80.4994 175.75L80.2994 175.9V196H73.2494V161.7H79.7994L90.5994 177.6L92.0994 179.95C92.6327 180.883 93.0494 181.567 93.3494 182L93.4994 181.85V161.7H100.549V196H93.9994L83.2494 180.2ZM124.72 167.9V196H117.07V167.9H107.32V161.7H134.42V167.9H124.72ZM169.952 195.7C168.852 196.133 167.418 196.35 165.652 196.35C163.952 196.35 162.568 195.933 161.502 195.1C160.435 194.267 159.902 192.867 159.902 190.9C159.902 188.033 159.518 185.8 158.752 184.2C158.018 182.6 156.618 181.8 154.552 181.8H148.752V196H141.152V161.7H156.502C159.768 161.7 162.502 162.367 164.702 163.7C166.935 165.033 168.052 167.2 168.052 170.2C168.052 171.4 167.785 172.583 167.252 173.75C166.718 174.917 165.968 175.917 165.002 176.75C164.068 177.583 163.035 178.1 161.902 178.3V178.55C163.368 179.017 164.652 180.017 165.752 181.55C166.852 183.083 167.402 185.133 167.402 187.7C167.402 191.367 168.252 193.467 169.952 194V195.7ZM156.252 175.75C157.352 175.75 158.285 175.383 159.052 174.65C159.852 173.917 160.252 173.033 160.252 172V171.65C160.252 170.55 159.868 169.65 159.102 168.95C158.368 168.217 157.418 167.85 156.252 167.85H148.752V175.75H156.252ZM204.004 185.1C204.004 187.367 203.47 189.367 202.404 191.1C201.337 192.833 199.82 194.167 197.854 195.1C195.887 196.033 193.62 196.5 191.054 196.5H189.654C187.087 196.5 184.82 196.033 182.854 195.1C180.92 194.167 179.42 192.833 178.354 191.1C177.287 189.367 176.754 187.367 176.754 185.1V161.7H184.454V184.95C184.454 186.517 185.004 187.817 186.104 188.85C187.237 189.883 188.67 190.4 190.404 190.4C192.17 190.4 193.587 189.9 194.654 188.9C195.754 187.867 196.304 186.55 196.304 184.95V161.7H204.004V185.1ZM246.946 196V170.75H246.696L237.796 196H229.696L220.796 170.75H220.546V196H213.546V161.7H225.996L233.996 184.35H234.196L242.196 161.7H254.646V196H246.946ZM278.372 196V161.7H286.122V189.6H300.222L301.072 196H278.372ZM335.034 181.3C335.034 184.433 334.351 187.15 332.984 189.45C331.618 191.75 329.768 193.5 327.434 194.7C325.134 195.9 322.568 196.5 319.734 196.5C316.901 196.5 314.318 195.9 311.984 194.7C309.684 193.5 307.851 191.75 306.484 189.45C305.118 187.15 304.434 184.433 304.434 181.3V176.4C304.434 173.267 305.118 170.55 306.484 168.25C307.851 165.95 309.684 164.2 311.984 163C314.318 161.8 316.901 161.2 319.734 161.2C322.568 161.2 325.134 161.8 327.434 163C329.768 164.2 331.618 165.95 332.984 168.25C334.351 170.55 335.034 173.267 335.034 176.4V181.3ZM326.934 175.3C326.934 172.767 326.268 170.817 324.934 169.45C323.601 168.05 321.868 167.35 319.734 167.35C317.601 167.35 315.868 168.05 314.534 169.45C313.201 170.817 312.534 172.767 312.534 175.3V182.4C312.534 184.933 313.201 186.9 314.534 188.3C315.868 189.667 317.601 190.35 319.734 190.35C321.868 190.35 323.601 189.667 324.934 188.3C326.268 186.9 326.934 184.933 326.934 182.4V175.3ZM350.685 182.4C350.685 184.933 351.368 186.9 352.735 188.3C354.135 189.667 355.885 190.35 357.985 190.35C360.051 190.35 361.668 189.733 362.835 188.5C364.001 187.267 364.585 185.417 364.585 182.95H356.835V177.35H371.835V189.2C371.835 190.867 371.868 192.333 371.935 193.6C372.035 194.867 372.101 195.667 372.135 196H367.885C367.451 194.8 367.051 193.517 366.685 192.15C365.618 193.517 364.218 194.583 362.485 195.35C360.785 196.117 358.968 196.5 357.035 196.5H356.785C354.051 196.5 351.601 195.883 349.435 194.65C347.301 193.417 345.618 191.65 344.385 189.35C343.185 187.05 342.585 184.367 342.585 181.3V176.4C342.585 173.333 343.218 170.65 344.485 168.35C345.751 166.05 347.518 164.283 349.785 163.05C352.085 161.817 354.685 161.2 357.585 161.2H358.285C360.785 161.2 363.068 161.733 365.135 162.8C367.201 163.833 368.835 165.317 370.035 167.25C371.235 169.15 371.835 171.367 371.835 173.9H364.535C364.535 171.733 363.901 170.1 362.635 169C361.368 167.9 359.768 167.35 357.835 167.35C355.735 167.35 354.018 168.05 352.685 169.45C351.351 170.817 350.685 172.767 350.685 175.3V182.4ZM410.896 181.3C410.896 184.433 410.212 187.15 408.846 189.45C407.479 191.75 405.629 193.5 403.296 194.7C400.996 195.9 398.429 196.5 395.596 196.5C392.762 196.5 390.179 195.9 387.846 194.7C385.546 193.5 383.712 191.75 382.346 189.45C380.979 187.15 380.296 184.433 380.296 181.3V176.4C380.296 173.267 380.979 170.55 382.346 168.25C383.712 165.95 385.546 164.2 387.846 163C390.179 161.8 392.762 161.2 395.596 161.2C398.429 161.2 400.996 161.8 403.296 163C405.629 164.2 407.479 165.95 408.846 168.25C410.212 170.55 410.896 173.267 410.896 176.4V181.3ZM402.796 175.3C402.796 172.767 402.129 170.817 400.796 169.45C399.462 168.05 397.729 167.35 395.596 167.35C393.462 167.35 391.729 168.05 390.396 169.45C389.062 170.817 388.396 172.767 388.396 175.3V182.4C388.396 184.933 389.062 186.9 390.396 188.3C391.729 189.667 393.462 190.35 395.596 190.35C397.729 190.35 399.462 189.667 400.796 188.3C402.129 186.9 402.796 184.933 402.796 182.4V175.3ZM427.346 196H419.646V161.7H436.196C438.063 161.7 439.779 162.15 441.346 163.05C442.946 163.917 444.213 165.133 445.146 166.7C446.079 168.267 446.546 170.017 446.546 171.95V172.25C446.546 174.15 446.079 175.917 445.146 177.55C444.246 179.15 442.996 180.417 441.396 181.35C439.829 182.283 438.096 182.75 436.196 182.75H427.346V196ZM427.346 176.7H434.396C435.663 176.7 436.713 176.283 437.546 175.45C438.379 174.583 438.796 173.583 438.796 172.45V172.15C438.796 170.983 438.379 169.983 437.546 169.15C436.746 168.283 435.696 167.85 434.396 167.85H427.346V176.7ZM453.841 196V161.7H477.991L477.141 167.85H461.441V175.35H476.091V181.5H461.441V189.85H477.291L478.141 196H453.841ZM499.474 161.7C502.307 161.7 504.874 162.3 507.174 163.5C509.507 164.7 511.357 166.45 512.724 168.75C514.091 171.05 514.774 173.767 514.774 176.9V180.8C514.774 183.933 514.091 186.65 512.724 188.95C511.357 191.25 509.507 193 507.174 194.2C504.874 195.4 502.307 196 499.474 196H486.474V161.7H499.474ZM494.224 189.85H499.474C501.607 189.85 503.341 189.167 504.674 187.8C506.007 186.4 506.674 184.433 506.674 181.9V175.8C506.674 173.267 506.007 171.317 504.674 169.95C503.341 168.55 501.607 167.85 499.474 167.85H494.224V189.85ZM539.701 182.85V196H532.001V182.85L520.251 161.7H528.951L536.101 175.3H536.351L543.501 161.7H551.401L539.701 182.85ZM564.987 182.4C564.987 184.933 565.671 186.9 567.037 188.3C568.404 189.667 570.137 190.35 572.237 190.35C574.604 190.35 576.354 189.717 577.487 188.45C578.621 187.15 579.187 185.167 579.187 182.5H586.237C586.237 185.433 585.637 187.967 584.437 190.1C583.271 192.2 581.654 193.8 579.587 194.9C577.521 195.967 575.187 196.5 572.587 196.5H571.887C569.021 196.5 566.454 195.917 564.187 194.75C561.921 193.583 560.137 191.867 558.837 189.6C557.537 187.3 556.887 184.533 556.887 181.3V176.4C556.887 173.267 557.537 170.55 558.837 168.25C560.137 165.95 561.904 164.2 564.137 163C566.404 161.8 568.921 161.2 571.687 161.2H572.387C575.054 161.2 577.421 161.733 579.487 162.8C581.587 163.833 583.237 165.417 584.437 167.55C585.637 169.65 586.237 172.233 586.237 175.3H578.887C578.887 172.7 578.304 170.733 577.137 169.4C576.004 168.033 574.354 167.35 572.187 167.35C570.087 167.35 568.354 168.05 566.987 169.45C565.654 170.817 564.987 172.767 564.987 175.3V182.4ZM593.468 196V193.55L609.268 167.85H594.668V161.7H620.418V164.2L604.668 189.85H620.818V196H593.468ZM639.261 180.2C638.894 179.667 638.394 178.883 637.761 177.85C637.128 176.783 636.711 176.083 636.511 175.75L636.311 175.9V196H629.261V161.7H635.811L646.611 177.6L648.111 179.95C648.644 180.883 649.061 181.567 649.361 182L649.511 181.85V161.7H656.561V196H650.011L639.261 180.2ZM666.581 196V161.7H690.731L689.881 167.85H674.181V175.35H688.831V181.5H674.181V189.85H690.031L690.881 196H666.581Z" fill="#750505"/>
</svg>
