<svg width="57" height="57" viewBox="0 0 57 57" fill="none" xmlns="http://www.w3.org/2000/svg">
<path d="M54.625 27.3125L47.3813 24.6287C46.7638 21.8975 45.22 20.33 45.22 20.33C44.2959 19.4041 43.1983 18.6695 41.9899 18.1683C40.7816 17.6671 39.4863 17.4091 38.1781 17.4091C36.87 17.4091 35.5746 17.6671 34.3663 18.1683C33.158 18.6695 32.0603 19.4041 31.1362 20.33L27.6213 23.845L11.875 7.125C9.5 16.625 11.875 26.125 17.6937 33.7725L4.75 46.3125C4.75 46.3125 25.8638 51.0625 38.1662 41.4438C44.7212 36.3138 46.1938 33.3212 47.12 30.1625L54.625 27.3125ZM42.0612 27.835C41.135 28.7613 39.615 28.7613 38.6888 27.835C38.4686 27.6153 38.2939 27.3543 38.1747 27.067C38.0555 26.7797 37.9942 26.4717 37.9942 26.1606C37.9942 25.8496 38.0555 25.5416 38.1747 25.2543C38.2939 24.967 38.4686 24.706 38.6888 24.4863C39.615 23.56 41.135 23.56 42.0612 24.4863C42.9875 25.4125 42.9875 26.9088 42.0612 27.835Z" fill="#AD3D3D"/>
</svg>
