<svg width="163" height="163" viewBox="0 0 163 163" fill="none" xmlns="http://www.w3.org/2000/svg">
<mask id="mask0_118_298" style="mask-type:alpha" maskUnits="userSpaceOnUse" x="0" y="0" width="163" height="163">
<rect width="163" height="163" fill="#D9D9D9"/>
</mask>
<g mask="url(#mask0_118_298)">
<path d="M-18.1108 50.2281C67.6514 -12.9263 109.557 -7.42726 123.46 25.5087M97.6534 164.279C110.973 140.342 121.149 111.904 122.617 85.9607" stroke="black" stroke-width="2"/>
<path d="M-18.1108 50.2281C67.6514 -12.9263 109.557 -7.42726 123.46 25.5087M97.6534 164.279C110.973 140.342 121.149 111.904 122.617 85.9607" stroke="black" stroke-width="3"/>
<path d="M122.618 54.0891C124.331 56.2918 126.281 61.0081 138.263 64.8608C142.605 66.2569 146.811 67.6529 150.763 69.2934C142.879 79.8589 136.491 83.2122 122.618 85.9609C123.498 70.9689 123.352 67.5501 122.618 54.0891Z" fill="#FFDAB9"/>
<path d="M161.741 75.1922C159.975 73.9325 158.105 72.8105 156.148 71.7896C154.417 70.8869 152.618 70.0633 150.763 69.2934M150.763 69.2934C146.811 67.6529 142.605 66.2569 138.263 64.8608C126.281 61.0081 124.331 56.2918 122.618 54.0891C123.352 67.5501 123.498 70.9689 122.618 85.9609C136.491 83.2122 142.879 79.8589 150.763 69.2934Z" stroke="black" stroke-width="3"/>
<path d="M122.769 25.2641C121.692 42.8029 126.281 61.008 138.263 64.8606C146.795 67.6044 154.804 70.3481 161.394 74.9473C162.986 48.4004 155.471 36.7037 122.769 25.2641Z" fill="#FFDAB9" stroke="black" stroke-width="3"/>
<ellipse cx="79.7868" cy="35.2995" rx="6.60811" ry="6.60811" fill="black"/>
</g>
</svg>
