<svg width="150" height="150" viewBox="0 0 150 150" fill="none" xmlns="http://www.w3.org/2000/svg">
<path d="M68.75 12.5C56.3887 12.5 44.305 16.1656 34.0269 23.0331C23.7488 29.9007 15.738 39.6619 11.0076 51.0823C6.27708 62.5027 5.03937 75.0693 7.45095 87.1931C9.86252 99.317 15.8151 110.453 24.5559 119.194C33.2966 127.935 44.4331 133.888 56.5569 136.299C68.6807 138.711 81.2474 137.473 92.6677 132.742C104.088 128.012 113.849 120.001 120.717 109.723C127.584 99.4451 131.25 87.3613 131.25 75C131.25 66.7924 129.633 58.6651 126.492 51.0823C123.352 43.4994 118.748 36.6095 112.944 30.8058C107.141 25.0022 100.251 20.3984 92.6677 17.2575C85.0849 14.1166 76.9576 12.5 68.75 12.5ZM68.75 125C58.861 125 49.194 122.068 40.9715 116.573C32.7491 111.079 26.3404 103.27 22.5561 94.1342C18.7717 84.9979 17.7815 74.9445 19.7108 65.2455C21.64 55.5464 26.4021 46.6373 33.3947 39.6447C40.3873 32.652 49.2965 27.89 58.9955 25.9607C68.6946 24.0315 78.7479 25.0216 87.8842 28.806C97.0205 32.5904 104.829 38.999 110.323 47.2215C115.818 55.4439 118.75 65.1109 118.75 75C118.75 88.2608 113.482 100.979 104.105 110.355C94.7285 119.732 82.0108 125 68.75 125ZM75 74.5625V43.75C75 42.0924 74.3415 40.5027 73.1694 39.3306C71.9973 38.1585 70.4076 37.5 68.75 37.5C67.0924 37.5 65.5027 38.1585 64.3306 39.3306C63.1585 40.5027 62.5 42.0924 62.5 43.75V75C62.5 75 62.5 75.4375 62.5 75.6875C62.3462 76.9581 62.5862 78.2452 63.1875 79.375L72.5625 95.625C73.3913 97.0671 74.7591 98.1209 76.3648 98.5546C77.9706 98.9883 79.6829 98.7663 81.125 97.9375C82.5671 97.1087 83.6209 95.741 84.0546 94.1352C84.4883 92.5294 84.2663 90.8171 83.4375 89.375L75 74.5625Z" fill="#AD3D3D"/>
</svg>
