<svg width="150" height="150" viewBox="0 0 150 150" fill="none" xmlns="http://www.w3.org/2000/svg">
<path d="M137 72.5C124.375 43.1875 100.625 25 74.9998 25C49.3748 25 25.6248 43.1875 12.9998 72.5C12.6557 73.2885 12.478 74.1396 12.478 75C12.478 75.8604 12.6557 76.7115 12.9998 77.5C25.6248 106.812 49.3748 125 74.9998 125C100.625 125 124.375 106.812 137 77.5C137.344 76.7115 137.522 75.8604 137.522 75C137.522 74.1396 137.344 73.2885 137 72.5V72.5ZM74.9998 112.5C55.1873 112.5 36.4373 98.1875 25.6248 75C36.4373 51.8125 55.1873 37.5 74.9998 37.5C94.8123 37.5 113.562 51.8125 124.375 75C113.562 98.1875 94.8123 112.5 74.9998 112.5ZM74.9998 50C70.0553 50 65.2218 51.4662 61.1106 54.2133C56.9993 56.9603 53.795 60.8648 51.9028 65.4329C50.0106 70.0011 49.5155 75.0277 50.4802 79.8773C51.4448 84.7268 53.8258 89.1814 57.3221 92.6777C60.8184 96.174 65.273 98.555 70.1225 99.5196C74.9721 100.484 79.9987 99.9892 84.5669 98.097C89.135 96.2048 93.0395 93.0005 95.7865 88.8893C98.5336 84.778 99.9998 79.9445 99.9998 75C99.9998 68.3696 97.3659 62.0107 92.6775 57.3223C87.9891 52.6339 81.6302 50 74.9998 50V50ZM74.9998 87.5C72.5275 87.5 70.1108 86.7669 68.0552 85.3934C65.9996 84.0199 64.3974 82.0676 63.4513 79.7835C62.5052 77.4995 62.2577 74.9861 62.74 72.5614C63.2223 70.1366 64.4128 67.9093 66.161 66.1612C67.9091 64.413 70.1364 63.2225 72.5612 62.7402C74.9859 62.2579 77.4993 62.5054 79.7833 63.4515C82.0674 64.3976 84.0197 65.9998 85.3932 68.0554C86.7667 70.111 87.4998 72.5277 87.4998 75C87.4998 78.3152 86.1828 81.4946 83.8386 83.8388C81.4944 86.183 78.315 87.5 74.9998 87.5Z" fill="#AD3D3D"/>
</svg>
