<svg width="150" height="150" viewBox="0 0 150 150" fill="none" xmlns="http://www.w3.org/2000/svg">
<path d="M52.9238 52.4659L52.9097 52.4773L52.8963 52.4903L52.9238 52.4659ZM115.137 51.3001C114.702 50.881 114.22 50.5143 113.699 50.2075C112.963 49.7741 112.146 49.4964 111.298 49.3915C110.45 49.2866 109.589 49.3567 108.77 49.5976C107.95 49.8384 107.188 50.2448 106.532 50.7917C105.875 51.3386 105.338 52.0143 104.953 52.7771C102.8 57.0189 99.8309 60.7939 96.2156 63.8855C96.7685 60.7705 97.0472 57.6131 97.0488 54.4494C97.0604 44.8251 94.5214 35.3695 89.6904 27.0455C84.8593 18.7214 77.9087 11.8262 69.5463 7.06194C68.6251 6.53973 67.5864 6.26012 66.5275 6.24935C65.4686 6.23857 64.4244 6.49698 63.4927 7.00032C62.5611 7.50367 61.7726 8.23545 61.2012 9.12701C60.6299 10.0186 60.2944 11.0406 60.2263 12.0974C59.8765 18.0235 58.3273 23.8169 55.6724 29.1265C53.0176 34.4362 49.3125 39.1517 44.7814 42.9871L43.341 44.159C38.603 47.3471 34.4091 51.2771 30.9204 55.7984C25.4974 62.6303 21.7407 70.6318 19.9482 79.1682C18.1558 87.7047 18.3769 96.5414 20.5941 104.978C22.8113 113.414 26.9635 121.217 32.7214 127.769C38.4794 134.321 45.6847 139.442 53.7661 142.725C54.7149 143.112 55.7446 143.261 56.7643 143.156C57.784 143.052 58.7624 142.698 59.6131 142.127C60.4639 141.555 61.1608 140.783 61.6425 139.878C62.1242 138.973 62.3758 137.964 62.3752 136.939C62.3707 136.276 62.2658 135.617 62.0639 134.985C60.6656 129.729 60.263 124.258 60.8768 118.854C66.7908 130.008 76.2839 138.85 87.8299 143.958C89.2392 144.588 90.8324 144.673 92.3008 144.196C101.423 141.251 109.641 136.023 116.174 129.008C122.706 121.994 127.337 113.425 129.625 104.116C131.913 94.8077 131.783 85.0687 129.248 75.8246C126.712 66.5804 121.854 58.1382 115.137 51.3001V51.3001ZM90.732 131.494C85.284 128.733 80.4781 124.856 76.6267 120.116C72.7754 115.375 69.9649 109.878 68.3779 103.98C67.8932 101.994 67.5183 99.9825 67.2548 97.9554C67.0763 96.6644 66.4988 95.4616 65.6031 94.515C64.7074 93.5683 63.5382 92.9253 62.2591 92.6758C61.8651 92.5981 61.4643 92.5593 61.0627 92.5599C59.9642 92.5595 58.885 92.8487 57.934 93.3985C56.983 93.9482 56.1937 94.739 55.6458 95.6911C50.46 104.636 47.8521 114.841 48.111 125.177C43.55 121.631 39.7382 117.215 36.8965 112.185C34.0548 107.154 32.2397 101.61 31.5564 95.8734C30.8732 90.1365 31.3354 84.3211 32.9161 78.7642C34.4969 73.2073 37.1649 68.0194 40.7654 63.5012C43.4993 59.9502 46.7973 56.8718 50.5279 54.3887C50.6895 54.2844 50.8444 54.1703 50.9918 54.0469C50.9918 54.0469 52.8461 52.5126 52.9095 52.4775C61.8139 44.946 68.1471 34.8245 71.0266 23.5232C77.8364 29.8184 82.3772 38.1859 83.9438 47.3264C85.5105 56.4669 84.0153 65.8689 79.6906 74.0725C79.1192 75.1672 78.8848 76.4066 79.017 77.6343C79.1491 78.8621 79.6419 80.0232 80.4332 80.9712C81.2245 81.9191 82.2788 82.6116 83.4632 82.9611C84.6475 83.3106 85.9088 83.3015 87.088 82.935C96.6617 79.934 105.086 74.072 111.227 66.1381C114.918 71.59 117.331 77.8044 118.287 84.3185C119.242 90.8325 118.715 97.4782 116.745 103.76C114.775 110.042 111.413 115.799 106.909 120.601C102.405 125.403 96.875 129.127 90.7318 131.494L90.732 131.494Z" fill="#AD3D3D"/>
</svg>
