<svg width="150" height="150" viewBox="0 0 150 150" fill="none" xmlns="http://www.w3.org/2000/svg">
<path d="M139.154 15.1734C137.374 13.693 135.227 12.7227 132.94 12.3659C130.652 12.0091 128.311 12.2791 126.166 13.1471L14.1599 58.368C11.7646 59.3535 9.72561 61.0442 8.31364 63.2156C6.90166 65.387 6.18343 67.9365 6.25429 70.5257C6.32515 73.1148 7.18174 75.6212 8.71037 77.7122C10.239 79.8031 12.3674 81.3797 14.813 82.2328L37.4693 90.1124L50.0974 131.873C50.269 132.43 50.518 132.961 50.8373 133.45C50.8857 133.525 50.954 133.581 51.0055 133.654C51.3743 134.168 51.82 134.623 52.3269 135.002C52.4711 135.112 52.6092 135.215 52.7633 135.313C53.3567 135.706 54.0137 135.994 54.7054 136.163L54.7794 136.17L54.8213 136.188C55.2372 136.272 55.6604 136.315 56.0848 136.316C56.1256 136.316 56.1618 136.296 56.2023 136.296C56.8426 136.284 57.4774 136.174 58.0841 135.969C58.2252 135.921 58.3461 135.84 58.4831 135.782C58.9354 135.595 59.364 135.354 59.7599 135.066C60.0769 134.799 60.394 134.532 60.7113 134.265L77.5998 115.619L102.789 135.132C105.007 136.858 107.736 137.797 110.547 137.799C113.491 137.795 116.345 136.779 118.63 134.921C120.915 133.063 122.491 130.476 123.095 127.594L143.487 27.4903C143.949 25.2373 143.79 22.901 143.027 20.7315C142.264 18.5619 140.925 16.6407 139.154 15.1734V15.1734ZM58.563 92.1021C57.6964 92.9653 57.104 94.0652 56.8601 95.2638L54.9257 104.664L50.0253 88.4571L75.4331 75.2261L58.563 92.1021ZM110.449 125.25L80.6821 102.191C79.4368 101.229 77.8745 100.771 76.3068 100.909C74.739 101.047 73.2807 101.771 72.2226 102.936L66.8138 108.906L68.7253 99.6153L112.994 55.3466C114.051 54.2913 114.695 52.8925 114.809 51.4036C114.923 49.9146 114.5 48.434 113.617 47.2298C112.734 46.0256 111.449 45.1776 109.994 44.8393C108.54 44.501 107.012 44.6948 105.688 45.3856L42.1552 78.4646L18.8779 69.9464L131.244 24.9938L110.449 125.25Z" fill="#AD3D3D"/>
</svg>
