<svg width="151" height="150" viewBox="0 0 151 150" fill="none" xmlns="http://www.w3.org/2000/svg">
<path d="M75.4999 6.25C66.8963 6.26079 58.4869 8.80806 51.3235 13.5732C44.16 18.3383 38.5606 25.1098 35.2255 33.0407C31.8904 40.9715 30.9677 49.7097 32.5728 58.1622C34.178 66.6147 38.2396 74.4063 44.2499 80.5625V137.5C44.2531 138.565 44.5286 139.612 45.0502 140.541C45.5719 141.47 46.3224 142.25 47.2304 142.808C48.1384 143.365 49.1738 143.681 50.2382 143.726C51.3027 143.77 52.3609 143.542 53.3124 143.062L75.4999 132L97.6874 143.062C98.5581 143.509 99.5215 143.744 100.5 143.75C101.67 143.754 102.818 143.429 103.812 142.812C104.713 142.25 105.455 141.466 105.969 140.537C106.483 139.607 106.752 138.562 106.75 137.5V80.5625C112.76 74.4063 116.822 66.6147 118.427 58.1622C120.032 49.7097 119.109 40.9715 115.774 33.0407C112.439 25.1098 106.84 18.3383 99.6762 13.5732C92.5128 8.80806 84.1034 6.26079 75.4999 6.25ZM94.2499 127.375L78.3124 119.438C77.44 118.998 76.4767 118.769 75.4999 118.769C74.523 118.769 73.5597 118.998 72.6874 119.438L56.7499 127.375V89.5C60.7056 91.3679 64.9191 92.632 69.2499 93.25V100C69.2499 101.658 69.9083 103.247 71.0804 104.419C72.2525 105.592 73.8423 106.25 75.4999 106.25C77.1575 106.25 78.7472 105.592 79.9193 104.419C81.0914 103.247 81.7499 101.658 81.7499 100V93.25C86.0806 92.632 90.2941 91.3679 94.2499 89.5V127.375ZM75.4999 81.25C69.3192 81.25 63.2773 79.4172 58.1383 75.9834C52.9992 72.5496 48.9939 67.669 46.6286 61.9589C44.2634 56.2487 43.6445 49.9653 44.8503 43.9034C46.0561 37.8415 49.0324 32.2733 53.4028 27.9029C57.7732 23.5325 63.3414 20.5562 69.4033 19.3505C75.4652 18.1447 81.7485 18.7635 87.4587 21.1288C93.1689 23.494 98.0495 27.4994 101.483 32.6384C104.917 37.7775 106.75 43.8193 106.75 50C106.75 58.288 103.457 66.2366 97.5969 72.0971C91.7364 77.9576 83.7879 81.25 75.4999 81.25Z" fill="#AD3D3D"/>
</svg>
