<svg width="182" height="30" viewBox="0 0 182 30" fill="none" xmlns="http://www.w3.org/2000/svg">
<path d="M4.52 12.9H5.98C6.48667 12.9 6.89333 12.84 7.2 12.72C7.50667 12.5867 7.78667 12.3667 8.04 12.06L17.58 1.26C17.8467 0.913331 18.1267 0.673331 18.42 0.539998C18.7133 0.406665 19.0733 0.339998 19.5 0.339998H22.78L11.86 12.68C11.5933 13 11.3333 13.2667 11.08 13.48C10.84 13.68 10.58 13.8467 10.3 13.98C10.66 14.1 10.9867 14.28 11.28 14.52C11.5733 14.7467 11.86 15.0467 12.14 15.42L23.54 29H20.18C19.9267 29 19.7067 28.9867 19.52 28.96C19.3467 28.92 19.1933 28.8667 19.06 28.8C18.9267 28.72 18.8067 28.6333 18.7 28.54C18.6067 28.4333 18.5133 28.3133 18.42 28.18L8.54 16.8C8.27333 16.4667 7.98667 16.2333 7.68 16.1C7.37333 15.9533 6.90667 15.88 6.28 15.88H4.52V29H0.66V0.339998H4.52V12.9ZM51.9056 14.68C51.9056 16.8267 51.5656 18.8 50.8856 20.6C50.2056 22.3867 49.2456 23.9267 48.0056 25.22C46.7656 26.5133 45.2723 27.52 43.5256 28.24C41.7923 28.9467 39.8723 29.3 37.7656 29.3C35.659 29.3 33.739 28.9467 32.0056 28.24C30.2723 27.52 28.7856 26.5133 27.5456 25.22C26.3056 23.9267 25.3456 22.3867 24.6656 20.6C23.9856 18.8 23.6456 16.8267 23.6456 14.68C23.6456 12.5333 23.9856 10.5667 24.6656 8.78C25.3456 6.98 26.3056 5.43333 27.5456 4.14C28.7856 2.83333 30.2723 1.82 32.0056 1.1C33.739 0.379998 35.659 0.0199976 37.7656 0.0199976C39.8723 0.0199976 41.7923 0.379998 43.5256 1.1C45.2723 1.82 46.7656 2.83333 48.0056 4.14C49.2456 5.43333 50.2056 6.98 50.8856 8.78C51.5656 10.5667 51.9056 12.5333 51.9056 14.68ZM47.9256 14.68C47.9256 12.92 47.6856 11.34 47.2056 9.94C46.7256 8.54 46.0456 7.36 45.1656 6.4C44.2856 5.42667 43.219 4.68 41.9656 4.16C40.7123 3.64 39.3123 3.38 37.7656 3.38C36.2323 3.38 34.839 3.64 33.5856 4.16C32.3323 4.68 31.259 5.42667 30.3656 6.4C29.4856 7.36 28.8056 8.54 28.3256 9.94C27.8456 11.34 27.6056 12.92 27.6056 14.68C27.6056 16.44 27.8456 18.02 28.3256 19.42C28.8056 20.8067 29.4856 21.9867 30.3656 22.96C31.259 23.92 32.3323 24.66 33.5856 25.18C34.839 25.6867 36.2323 25.94 37.7656 25.94C39.3123 25.94 40.7123 25.6867 41.9656 25.18C43.219 24.66 44.2856 23.92 45.1656 22.96C46.0456 21.9867 46.7256 20.8067 47.2056 19.42C47.6856 18.02 47.9256 16.44 47.9256 14.68ZM80.6769 0.339998V29H78.7369C78.4302 29 78.1702 28.9467 77.9569 28.84C77.7569 28.7333 77.5569 28.5533 77.3569 28.3L60.7769 6.7C60.8035 7.03333 60.8235 7.36 60.8369 7.68C60.8502 8 60.8569 8.3 60.8569 8.58V29H57.4569V0.339998H59.4569C59.6302 0.339998 59.7769 0.353331 59.8969 0.379998C60.0169 0.393332 60.1235 0.426665 60.2169 0.479998C60.3102 0.519998 60.4035 0.586665 60.4969 0.68C60.5902 0.759999 60.6902 0.866665 60.7969 0.999998L77.3769 22.58C77.3502 22.2333 77.3235 21.9 77.2969 21.58C77.2835 21.2467 77.2769 20.9333 77.2769 20.64V0.339998H80.6769ZM107.384 3.6H98.1038V29H94.2438V3.6H84.9438V0.339998H107.384V3.6ZM124.044 18.36L119.544 6.7C119.411 6.35333 119.271 5.95333 119.124 5.5C118.977 5.03333 118.837 4.54 118.704 4.02C118.424 5.1 118.137 6 117.844 6.72L113.344 18.36H124.044ZM132.124 29H129.124C128.777 29 128.497 28.9133 128.284 28.74C128.071 28.5667 127.911 28.3467 127.804 28.08L125.124 21.16H112.264L109.584 28.08C109.504 28.32 109.351 28.5333 109.124 28.72C108.897 28.9067 108.617 29 108.284 29H105.284L116.744 0.339998H120.664L132.124 29ZM139.754 12.9H141.214C141.721 12.9 142.128 12.84 142.434 12.72C142.741 12.5867 143.021 12.3667 143.274 12.06L152.814 1.26C153.081 0.913331 153.361 0.673331 153.654 0.539998C153.948 0.406665 154.308 0.339998 154.734 0.339998H158.014L147.094 12.68C146.828 13 146.568 13.2667 146.314 13.48C146.074 13.68 145.814 13.8467 145.534 13.98C145.894 14.1 146.221 14.28 146.514 14.52C146.808 14.7467 147.094 15.0467 147.374 15.42L158.774 29H155.414C155.161 29 154.941 28.9867 154.754 28.96C154.581 28.92 154.428 28.8667 154.294 28.8C154.161 28.72 154.041 28.6333 153.934 28.54C153.841 28.4333 153.748 28.3133 153.654 28.18L143.774 16.8C143.508 16.4667 143.221 16.2333 142.914 16.1C142.608 15.9533 142.141 15.88 141.514 15.88H139.754V29H135.894V0.339998H139.754V12.9ZM181.759 3.6H172.479V29H168.619V3.6H159.319V0.339998H181.759V3.6Z" fill="#750505"/>
</svg>
