<svg width="119" height="30" viewBox="0 0 119 30" fill="none" xmlns="http://www.w3.org/2000/svg">
<path d="M29.14 14.68C29.14 16.8267 28.8 18.8 28.12 20.6C27.44 22.3867 26.48 23.9267 25.24 25.22C24 26.5133 22.5067 27.52 20.76 28.24C19.0267 28.9467 17.1067 29.3 15 29.3C12.8933 29.3 10.9733 28.9467 9.24 28.24C7.50667 27.52 6.02 26.5133 4.78 25.22C3.54 23.9267 2.58 22.3867 1.9 20.6C1.22 18.8 0.88 16.8267 0.88 14.68C0.88 12.5333 1.22 10.5667 1.9 8.78C2.58 6.98 3.54 5.43333 4.78 4.14C6.02 2.83333 7.50667 1.82 9.24 1.1C10.9733 0.379998 12.8933 0.0199976 15 0.0199976C17.1067 0.0199976 19.0267 0.379998 20.76 1.1C22.5067 1.82 24 2.83333 25.24 4.14C26.48 5.43333 27.44 6.98 28.12 8.78C28.8 10.5667 29.14 12.5333 29.14 14.68ZM25.16 14.68C25.16 12.92 24.92 11.34 24.44 9.94C23.96 8.54 23.28 7.36 22.4 6.4C21.52 5.42667 20.4533 4.68 19.2 4.16C17.9467 3.64 16.5467 3.38 15 3.38C13.4667 3.38 12.0733 3.64 10.82 4.16C9.56667 4.68 8.49333 5.42667 7.6 6.4C6.72 7.36 6.04 8.54 5.56 9.94C5.08 11.34 4.84 12.92 4.84 14.68C4.84 16.44 5.08 18.02 5.56 19.42C6.04 20.8067 6.72 21.9867 7.6 22.96C8.49333 23.92 9.56667 24.66 10.82 25.18C12.0733 25.6867 13.4667 25.94 15 25.94C16.5467 25.94 17.9467 25.6867 19.2 25.18C20.4533 24.66 21.52 23.92 22.4 22.96C23.28 21.9867 23.96 20.8067 24.44 19.42C24.92 18.02 25.16 16.44 25.16 14.68ZM68.1456 0.339998V29H66.2056C65.899 29 65.639 28.9467 65.4256 28.84C65.2256 28.7333 65.0256 28.5533 64.8256 28.3L48.2456 6.7C48.2723 7.03333 48.2923 7.36 48.3056 7.68C48.319 8 48.3256 8.3 48.3256 8.58V29H44.9256V0.339998H46.9256C47.099 0.339998 47.2456 0.353331 47.3656 0.379998C47.4856 0.393332 47.5923 0.426665 47.6856 0.479998C47.779 0.519998 47.8723 0.586665 47.9656 0.68C48.059 0.759999 48.159 0.866665 48.2656 0.999998L64.8456 22.58C64.819 22.2333 64.7923 21.9 64.7656 21.58C64.7523 21.2467 64.7456 20.9333 64.7456 20.64V0.339998H68.1456ZM90.6925 18.36L86.1925 6.7C86.0592 6.35333 85.9192 5.95333 85.7725 5.5C85.6258 5.03333 85.4858 4.54 85.3525 4.02C85.0725 5.1 84.7858 6 84.4925 6.72L79.9925 18.36H90.6925ZM98.7725 29H95.7725C95.4258 29 95.1458 28.9133 94.9325 28.74C94.7192 28.5667 94.5592 28.3467 94.4525 28.08L91.7725 21.16H78.9125L76.2325 28.08C76.1525 28.32 75.9992 28.5333 75.7725 28.72C75.5458 28.9067 75.2658 29 74.9325 29H71.9325L83.3925 0.339998H87.3125L98.7725 29ZM117.203 4.82C117.083 5.02 116.949 5.17333 116.803 5.28C116.669 5.37333 116.503 5.42 116.303 5.42C116.076 5.42 115.809 5.30667 115.503 5.08C115.196 4.85333 114.809 4.60667 114.343 4.34C113.889 4.06 113.336 3.80667 112.683 3.58C112.043 3.35333 111.263 3.24 110.343 3.24C109.476 3.24 108.709 3.36 108.043 3.6C107.389 3.82667 106.836 4.14 106.383 4.54C105.943 4.94 105.609 5.41333 105.383 5.96C105.156 6.49333 105.043 7.07333 105.043 7.7C105.043 8.5 105.236 9.16667 105.623 9.7C106.023 10.22 106.543 10.6667 107.183 11.04C107.836 11.4133 108.569 11.74 109.383 12.02C110.209 12.2867 111.049 12.5667 111.903 12.86C112.769 13.1533 113.609 13.4867 114.423 13.86C115.249 14.22 115.983 14.68 116.623 15.24C117.276 15.8 117.796 16.4867 118.183 17.3C118.583 18.1133 118.783 19.1133 118.783 20.3C118.783 21.5533 118.569 22.7333 118.143 23.84C117.716 24.9333 117.089 25.8867 116.263 26.7C115.449 27.5133 114.443 28.1533 113.243 28.62C112.056 29.0867 110.703 29.32 109.183 29.32C107.316 29.32 105.623 28.9867 104.103 28.32C102.583 27.64 101.283 26.7267 100.203 25.58L101.323 23.74C101.429 23.5933 101.556 23.4733 101.703 23.38C101.863 23.2733 102.036 23.22 102.223 23.22C102.396 23.22 102.589 23.2933 102.803 23.44C103.029 23.5733 103.283 23.7467 103.563 23.96C103.843 24.1733 104.163 24.4067 104.523 24.66C104.883 24.9133 105.289 25.1467 105.743 25.36C106.209 25.5733 106.736 25.7533 107.323 25.9C107.909 26.0333 108.569 26.1 109.303 26.1C110.223 26.1 111.043 25.9733 111.763 25.72C112.483 25.4667 113.089 25.1133 113.583 24.66C114.089 24.1933 114.476 23.64 114.743 23C115.009 22.36 115.143 21.6467 115.143 20.86C115.143 19.9933 114.943 19.2867 114.543 18.74C114.156 18.18 113.643 17.7133 113.003 17.34C112.363 16.9667 111.629 16.6533 110.803 16.4C109.976 16.1333 109.136 15.8667 108.283 15.6C107.429 15.32 106.589 15 105.763 14.64C104.936 14.28 104.203 13.8133 103.563 13.24C102.923 12.6667 102.403 11.9533 102.003 11.1C101.616 10.2333 101.423 9.16667 101.423 7.9C101.423 6.88667 101.616 5.90667 102.003 4.96C102.403 4.01333 102.976 3.17333 103.723 2.44C104.483 1.70667 105.409 1.12 106.503 0.68C107.609 0.239998 108.876 0.0199976 110.303 0.0199976C111.903 0.0199976 113.356 0.273332 114.663 0.78C115.983 1.28667 117.143 2.02 118.143 2.98L117.203 4.82Z" fill="#750505"/>
</svg>
