<svg width="149" height="30" viewBox="0 0 149 30" fill="none" xmlns="http://www.w3.org/2000/svg">
<path d="M29.14 14.68C29.14 16.8267 28.8 18.8 28.12 20.6C27.44 22.3867 26.48 23.9267 25.24 25.22C24 26.5133 22.5067 27.52 20.76 28.24C19.0267 28.9467 17.1067 29.3 15 29.3C12.8933 29.3 10.9733 28.9467 9.24 28.24C7.50667 27.52 6.02 26.5133 4.78 25.22C3.54 23.9267 2.58 22.3867 1.9 20.6C1.22 18.8 0.88 16.8267 0.88 14.68C0.88 12.5333 1.22 10.5667 1.9 8.78C2.58 6.98 3.54 5.43333 4.78 4.14C6.02 2.83333 7.50667 1.82 9.24 1.1C10.9733 0.379998 12.8933 0.0199976 15 0.0199976C17.1067 0.0199976 19.0267 0.379998 20.76 1.1C22.5067 1.82 24 2.83333 25.24 4.14C26.48 5.43333 27.44 6.98 28.12 8.78C28.8 10.5667 29.14 12.5333 29.14 14.68ZM25.16 14.68C25.16 12.92 24.92 11.34 24.44 9.94C23.96 8.54 23.28 7.36 22.4 6.4C21.52 5.42667 20.4533 4.68 19.2 4.16C17.9467 3.64 16.5467 3.38 15 3.38C13.4667 3.38 12.0733 3.64 10.82 4.16C9.56667 4.68 8.49333 5.42667 7.6 6.4C6.72 7.36 6.04 8.54 5.56 9.94C5.08 11.34 4.84 12.92 4.84 14.68C4.84 16.44 5.08 18.02 5.56 19.42C6.04 20.8067 6.72 21.9867 7.6 22.96C8.49333 23.92 9.56667 24.66 10.82 25.18C12.0733 25.6867 13.4667 25.94 15 25.94C16.5467 25.94 17.9467 25.6867 19.2 25.18C20.4533 24.66 21.52 23.92 22.4 22.96C23.28 21.9867 23.96 20.8067 24.44 19.42C24.92 18.02 25.16 16.44 25.16 14.68ZM38.5713 3.5V13.52H50.3513V16.68H38.5713V29H34.6913V0.339998H52.3513V3.5H38.5713ZM74.9884 25.84L74.9684 29H57.3084V0.339998H74.9684V3.5H61.1884V13.02H72.3484V16.06H61.1884V25.84H74.9884ZM88.3344 14.22C89.4544 14.22 90.441 14.0867 91.2944 13.82C92.161 13.54 92.881 13.1533 93.4544 12.66C94.041 12.1533 94.481 11.5533 94.7744 10.86C95.0677 10.1667 95.2144 9.4 95.2144 8.56C95.2144 6.85333 94.6544 5.56667 93.5344 4.7C92.4144 3.83333 90.7344 3.4 88.4944 3.4H84.2544V14.22H88.3344ZM101.574 29H98.1344C97.4277 29 96.9077 28.7267 96.5744 28.18L89.1344 17.94C88.9077 17.62 88.661 17.3933 88.3944 17.26C88.141 17.1133 87.741 17.04 87.1944 17.04H84.2544V29H80.3944V0.339998H88.4944C90.3077 0.339998 91.8744 0.526665 93.1944 0.899998C94.5144 1.26 95.601 1.78667 96.4544 2.48C97.321 3.17333 97.961 4.01333 98.3744 5C98.7877 5.97333 98.9944 7.06667 98.9944 8.28C98.9944 9.29333 98.8344 10.24 98.5144 11.12C98.1944 12 97.7277 12.7933 97.1144 13.5C96.5144 14.1933 95.7744 14.7867 94.8944 15.28C94.0277 15.7733 93.041 16.1467 91.9344 16.4C92.4277 16.68 92.8544 17.0867 93.2144 17.62L101.574 29ZM123.915 3.6H114.635V29H110.775V3.6H101.475V0.339998H123.915V3.6ZM140.575 18.36L136.075 6.7C135.942 6.35333 135.802 5.95333 135.655 5.5C135.509 5.03333 135.369 4.54 135.235 4.02C134.955 5.1 134.669 6 134.375 6.72L129.875 18.36H140.575ZM148.655 29H145.655C145.309 29 145.029 28.9133 144.815 28.74C144.602 28.5667 144.442 28.3467 144.335 28.08L141.655 21.16H128.795L126.115 28.08C126.035 28.32 125.882 28.5333 125.655 28.72C125.429 28.9067 125.149 29 124.815 29H121.815L133.275 0.339998H137.195L148.655 29Z" fill="#750505"/>
</svg>
