<svg width="150" height="151" viewBox="0 0 150 151" fill="none" xmlns="http://www.w3.org/2000/svg">
<path d="M128.688 43.6252C128.557 43.4067 128.411 43.1979 128.25 43.0002C120.166 29.6957 107.408 19.8871 92.4725 15.4943C77.5371 11.1015 61.5 12.4409 47.5002 19.2502H47.0627C37.4037 24.2242 29.2081 31.6302 23.2844 40.7377C17.3606 49.8451 13.9132 60.3395 13.2823 71.1856C12.6513 82.0317 14.8586 92.855 19.6863 102.588C24.5141 112.321 31.7956 120.627 40.8127 126.688L42.8752 127.938L43.5002 128.375C52.9416 134.362 63.8249 137.688 75.0002 138H76.3127C87.2272 137.76 97.8884 134.664 107.235 129.023C116.581 123.381 124.287 115.389 129.584 105.843C134.882 96.2977 137.587 85.5309 137.429 74.6148C137.272 63.6987 134.258 53.0143 128.688 43.6252V43.6252ZM118.75 50.8752C120.42 53.7665 121.781 56.8248 122.813 60.0002C116.755 58.0298 110.432 56.9971 104.063 56.9377C103.423 56.8129 102.765 56.8129 102.125 56.9377C94.4464 57.0395 86.8557 58.5873 79.7502 61.5002C75.4194 58.7862 71.5392 55.4121 68.2502 51.5002C75.889 47.0207 84.5626 44.6074 93.4174 44.4978C102.272 44.3882 111.003 46.5861 118.75 50.8752V50.8752ZM75.0002 25.5002C83.7814 25.4548 92.4143 27.7641 100 32.1877C97.9284 31.9075 95.8407 31.7613 93.7502 31.7502C82.279 31.7721 71.0351 34.9507 61.2502 40.9377C59.4042 37.0835 58.0599 33.0087 57.2502 28.8127C62.9137 26.6296 68.9304 25.5067 75.0002 25.5002V25.5002ZM37.5002 42.4377C39.9943 39.6656 42.7813 37.1719 45.8127 35.0002C47.8995 42.9679 51.5562 50.4387 56.5682 56.9747C61.5801 63.5107 67.8466 68.9803 75.0002 73.0627C74.5544 79.314 72.9211 85.423 70.1877 91.0627C60.6126 87.5287 52.3483 81.1491 46.5051 72.7809C40.6618 64.4126 37.5195 54.4566 37.5002 44.2502V42.4377ZM25.0002 75.5002C25.0113 70.4784 25.7696 65.4862 27.2502 60.6877C29.721 69.7616 34.2078 78.161 40.376 85.2599C46.5443 92.3588 54.235 97.9742 62.8752 101.688C57.9008 107.517 51.6287 112.098 44.5627 115.063C38.4921 110.405 33.5716 104.416 30.18 97.5567C26.7884 90.6977 25.0163 83.1518 25.0002 75.5002V75.5002ZM74.1252 125.5C68.5526 125.419 63.0351 124.383 57.8127 122.438C66.0107 117.385 72.9218 110.495 78.0002 102.313C83.7554 93.1406 87.029 82.6306 87.5002 71.8127C91.1069 70.627 94.8411 69.8718 98.6252 69.5627C101.295 80.2833 100.339 91.5863 95.907 101.706C91.4745 111.826 83.8151 120.193 74.1252 125.5V125.5ZM100.5 118.5C108.307 107.838 112.51 94.9647 112.5 81.7502C112.473 77.808 112.096 73.876 111.375 70.0002C116.075 70.8307 120.638 72.3028 124.938 74.3752V75.5002C124.932 84.1607 122.676 92.6712 118.393 100.198C114.109 107.725 107.943 114.01 100.5 118.438V118.5Z" fill="#AD3D3D"/>
</svg>
