<svg width="151" height="150" viewBox="0 0 151 150" fill="none" xmlns="http://www.w3.org/2000/svg">
<path d="M75.5 118.75C76.7361 118.75 77.9445 118.383 78.9723 117.697C80.0001 117.01 80.8012 116.034 81.2742 114.892C81.7473 113.75 81.8711 112.493 81.6299 111.281C81.3888 110.068 80.7935 108.955 79.9194 108.081C79.0453 107.206 77.9317 106.611 76.7193 106.37C75.5069 106.129 74.2503 106.253 73.1082 106.726C71.9662 107.199 70.9901 108 70.3033 109.028C69.6166 110.055 69.25 111.264 69.25 112.5C69.25 114.158 69.9085 115.747 71.0806 116.919C72.2527 118.092 73.8424 118.75 75.5 118.75ZM106.75 118.75C107.986 118.75 109.195 118.383 110.222 117.697C111.25 117.01 112.051 116.034 112.524 114.892C112.997 113.75 113.121 112.493 112.88 111.281C112.639 110.068 112.044 108.955 111.169 108.081C110.295 107.206 109.182 106.611 107.969 106.37C106.757 106.129 105.5 106.253 104.358 106.726C103.216 107.199 102.24 108 101.553 109.028C100.867 110.055 100.5 111.264 100.5 112.5C100.5 114.158 101.158 115.747 102.331 116.919C103.503 118.092 105.092 118.75 106.75 118.75ZM106.75 93.75C107.986 93.75 109.195 93.3834 110.222 92.6967C111.25 92.0099 112.051 91.0338 112.524 89.8918C112.997 88.7497 113.121 87.4931 112.88 86.2807C112.639 85.0683 112.044 83.9547 111.169 83.0806C110.295 82.2065 109.182 81.6112 107.969 81.3701C106.757 81.1289 105.5 81.2527 104.358 81.7258C103.216 82.1988 102.24 82.9999 101.553 84.0277C100.867 85.0555 100.5 86.2639 100.5 87.5C100.5 89.1576 101.158 90.7473 102.331 91.9194C103.503 93.0915 105.092 93.75 106.75 93.75ZM75.5 93.75C76.7361 93.75 77.9445 93.3834 78.9723 92.6967C80.0001 92.0099 80.8012 91.0338 81.2742 89.8918C81.7473 88.7497 81.8711 87.4931 81.6299 86.2807C81.3888 85.0683 80.7935 83.9547 79.9194 83.0806C79.0453 82.2065 77.9317 81.6112 76.7193 81.3701C75.5069 81.1289 74.2503 81.2527 73.1082 81.7258C71.9662 82.1988 70.9901 82.9999 70.3033 84.0277C69.6166 85.0555 69.25 86.2639 69.25 87.5C69.25 89.1576 69.9085 90.7473 71.0806 91.9194C72.2527 93.0915 73.8424 93.75 75.5 93.75ZM119.25 18.75H113V12.5C113 10.8424 112.342 9.25268 111.169 8.08058C109.997 6.90848 108.408 6.25 106.75 6.25C105.092 6.25 103.503 6.90848 102.331 8.08058C101.158 9.25268 100.5 10.8424 100.5 12.5V18.75H50.5V12.5C50.5 10.8424 49.8415 9.25268 48.6694 8.08058C47.4973 6.90848 45.9076 6.25 44.25 6.25C42.5924 6.25 41.0027 6.90848 39.8306 8.08058C38.6585 9.25268 38 10.8424 38 12.5V18.75H31.75C26.7772 18.75 22.0081 20.7254 18.4917 24.2417C14.9754 27.7581 13 32.5272 13 37.5V125C13 129.973 14.9754 134.742 18.4917 138.258C22.0081 141.775 26.7772 143.75 31.75 143.75H119.25C124.223 143.75 128.992 141.775 132.508 138.258C136.025 134.742 138 129.973 138 125V37.5C138 32.5272 136.025 27.7581 132.508 24.2417C128.992 20.7254 124.223 18.75 119.25 18.75ZM125.5 125C125.5 126.658 124.842 128.247 123.669 129.419C122.497 130.592 120.908 131.25 119.25 131.25H31.75C30.0924 131.25 28.5027 130.592 27.3306 129.419C26.1585 128.247 25.5 126.658 25.5 125V68.75H125.5V125ZM125.5 56.25H25.5V37.5C25.5 35.8424 26.1585 34.2527 27.3306 33.0806C28.5027 31.9085 30.0924 31.25 31.75 31.25H38V37.5C38 39.1576 38.6585 40.7473 39.8306 41.9194C41.0027 43.0915 42.5924 43.75 44.25 43.75C45.9076 43.75 47.4973 43.0915 48.6694 41.9194C49.8415 40.7473 50.5 39.1576 50.5 37.5V31.25H100.5V37.5C100.5 39.1576 101.158 40.7473 102.331 41.9194C103.503 43.0915 105.092 43.75 106.75 43.75C108.408 43.75 109.997 43.0915 111.169 41.9194C112.342 40.7473 113 39.1576 113 37.5V31.25H119.25C120.908 31.25 122.497 31.9085 123.669 33.0806C124.842 34.2527 125.5 35.8424 125.5 37.5V56.25ZM44.25 93.75C45.4861 93.75 46.6945 93.3834 47.7223 92.6967C48.7501 92.0099 49.5512 91.0338 50.0242 89.8918C50.4973 88.7497 50.6211 87.4931 50.3799 86.2807C50.1388 85.0683 49.5435 83.9547 48.6694 83.0806C47.7953 82.2065 46.6817 81.6112 45.4693 81.3701C44.2569 81.1289 43.0003 81.2527 41.8582 81.7258C40.7162 82.1988 39.7401 82.9999 39.0533 84.0277C38.3666 85.0555 38 86.2639 38 87.5C38 89.1576 38.6585 90.7473 39.8306 91.9194C41.0027 93.0915 42.5924 93.75 44.25 93.75ZM44.25 118.75C45.4861 118.75 46.6945 118.383 47.7223 117.697C48.7501 117.01 49.5512 116.034 50.0242 114.892C50.4973 113.75 50.6211 112.493 50.3799 111.281C50.1388 110.068 49.5435 108.955 48.6694 108.081C47.7953 107.206 46.6817 106.611 45.4693 106.37C44.2569 106.129 43.0003 106.253 41.8582 106.726C40.7162 107.199 39.7401 108 39.0533 109.028C38.3666 110.055 38 111.264 38 112.5C38 114.158 38.6585 115.747 39.8306 116.919C41.0027 118.092 42.5924 118.75 44.25 118.75Z" fill="#AD3D3D"/>
</svg>
