<svg width="151" height="150" viewBox="0 0 151 150" fill="none" xmlns="http://www.w3.org/2000/svg">
<path d="M121.062 23.1874C121.643 23.7732 122.335 24.2382 123.096 24.5555C123.858 24.8728 124.675 25.0361 125.5 25.0361C126.325 25.0361 127.142 24.8728 127.903 24.5555C128.665 24.2382 129.356 23.7732 129.937 23.1874C130.489 22.5799 130.933 21.8823 131.25 21.1249C131.57 20.3735 131.74 19.5666 131.75 18.7499C131.755 17.9274 131.597 17.112 131.286 16.3505C130.975 15.589 130.517 14.8964 129.937 14.3124L129 13.5624C128.651 13.3259 128.273 13.1367 127.875 12.9999C126.737 12.5213 125.482 12.3905 124.27 12.6241C123.057 12.8577 121.941 13.4452 121.062 14.3124C120.483 14.8964 120.025 15.589 119.714 16.3505C119.403 17.112 119.245 17.9274 119.25 18.7499C119.26 19.5666 119.43 20.3735 119.75 21.1249C120.066 21.8823 120.51 22.5799 121.062 23.1874V23.1874ZM125.5 31.2499C123.842 31.2499 122.253 31.9084 121.08 33.0805C119.908 34.2526 119.25 35.8423 119.25 37.4999V62.4999C119.25 64.1575 119.908 65.7472 121.08 66.9193C122.253 68.0914 123.842 68.7499 125.5 68.7499C127.157 68.7499 128.747 68.0914 129.919 66.9193C131.091 65.7472 131.75 64.1575 131.75 62.4999V37.4999C131.75 35.8423 131.091 34.2526 129.919 33.0805C128.747 31.9084 127.157 31.2499 125.5 31.2499ZM125.875 81.2499C124.235 81.0557 122.584 81.5186 121.284 82.5374C119.984 83.5563 119.141 85.0483 118.937 86.6874C117.612 97.2708 112.466 107.005 104.466 114.061C96.4671 121.116 86.166 125.006 75.4999 125H40.5624L44.5624 121.062C45.7265 119.891 46.3799 118.307 46.3799 116.656C46.3799 115.005 45.7265 113.421 44.5624 112.25C38.4217 106.135 34.2355 98.3334 32.5348 89.8357C30.8341 81.3379 31.6954 72.5265 35.0096 64.519C38.3237 56.5114 43.9414 49.6686 51.1501 44.8582C58.3587 40.0479 66.8336 37.4869 75.4999 37.4999C83.1632 37.4883 90.6916 39.516 97.3124 43.3749C98.7223 44.0121 100.319 44.1037 101.792 43.6319C103.266 43.1601 104.512 42.1585 105.29 40.8209C106.067 39.4833 106.321 37.9048 106.002 36.3908C105.683 34.8768 104.814 33.5349 103.562 32.6249C95.0569 27.623 85.3671 24.9901 75.4999 24.9999C64.9216 25.0347 54.5674 28.0517 45.6261 33.7045C36.6847 39.3574 29.5186 47.417 24.9503 56.9581C20.3821 66.4993 18.5968 77.1352 19.7995 87.645C21.0023 98.1548 25.1442 108.112 31.7499 116.375L21.0624 126.812C20.1952 127.691 19.6077 128.807 19.3741 130.02C19.1405 131.232 19.2713 132.487 19.7499 133.625C20.2188 134.766 21.015 135.743 22.0383 136.433C23.0615 137.122 24.266 137.494 25.4999 137.5H75.4999C89.206 137.5 102.44 132.496 112.717 123.427C122.994 114.358 129.607 101.849 131.312 88.2499C131.417 87.4329 131.36 86.6032 131.143 85.8085C130.926 85.0138 130.555 84.2698 130.049 83.6192C129.544 82.9687 128.915 82.4245 128.199 82.0179C127.482 81.6113 126.692 81.3503 125.875 81.2499Z" fill="#AD3D3D"/>
</svg>
