<svg width="151" height="151" viewBox="0 0 151 151" fill="none" xmlns="http://www.w3.org/2000/svg">
<path d="M125.5 50.5002L88.0001 17.6252C84.5625 14.5504 80.1122 12.8506 75.5001 12.8506C70.888 12.8506 66.4377 14.5504 63.0001 17.6252L25.5001 50.5002C23.5149 52.2756 21.9307 54.4536 20.8531 56.8892C19.7754 59.3247 19.2289 61.9619 19.2501 64.6252V119.25C19.2501 124.223 21.2255 128.992 24.7419 132.508C28.2582 136.025 33.0273 138 38.0001 138H113C117.973 138 122.742 136.025 126.258 132.508C129.775 128.992 131.75 124.223 131.75 119.25V64.5627C131.762 61.9099 131.212 59.2848 130.134 56.8607C129.057 54.4365 127.477 52.2686 125.5 50.5002V50.5002ZM88.0001 125.5H63.0001V94.2502C63.0001 92.5926 63.6586 91.0028 64.8307 89.8307C66.0028 88.6586 67.5925 88.0002 69.2501 88.0002H81.7501C83.4077 88.0002 84.9974 88.6586 86.1695 89.8307C87.3416 91.0028 88.0001 92.5926 88.0001 94.2502V125.5ZM119.25 119.25C119.25 120.908 118.592 122.497 117.42 123.67C116.247 124.842 114.658 125.5 113 125.5H100.5V94.2502C100.5 89.2773 98.5247 84.5082 95.0084 80.9919C91.4921 77.4756 86.7229 75.5002 81.7501 75.5002H69.2501C64.2773 75.5002 59.5082 77.4756 55.9919 80.9919C52.4755 84.5082 50.5001 89.2773 50.5001 94.2502V125.5H38.0001C36.3425 125.5 34.7528 124.842 33.5807 123.67C32.4086 122.497 31.7501 120.908 31.7501 119.25V64.5627C31.7512 63.6753 31.9413 62.7983 32.3077 61.99C32.6741 61.1818 33.2084 60.4608 33.8751 59.8752L71.3751 27.0627C72.5157 26.0607 73.9819 25.5081 75.5001 25.5081C77.0183 25.5081 78.4846 26.0607 79.6251 27.0627L117.125 59.8752C117.792 60.4608 118.326 61.1818 118.692 61.99C119.059 62.7983 119.249 63.6753 119.25 64.5627V119.25Z" fill="#AD3D3D"/>
</svg>
