<svg width="151" height="150" viewBox="0 0 151 150" fill="none" xmlns="http://www.w3.org/2000/svg">
<path d="M122 81.25C120.625 81.25 119.187 80.8125 117.812 80.5C115.028 79.8864 112.291 79.0718 109.625 78.0625C106.725 77.0077 103.538 77.0625 100.677 78.2163C97.8152 79.3702 95.4815 81.5415 94.1248 84.3125L92.7498 87.125C86.6623 83.7387 81.0684 79.5327 76.1248 74.625C71.2171 69.6814 67.0112 64.0875 63.6248 58L66.2498 56.25C69.0208 54.8933 71.1922 52.5596 72.346 49.6981C73.4998 46.8366 73.5546 43.6495 72.4998 40.75C71.5074 38.0777 70.6931 35.3425 70.0623 32.5625C69.7498 31.1875 69.4998 29.75 69.3123 28.3125C68.5533 23.9102 66.2474 19.9234 62.8099 17.0703C59.3724 14.2171 55.0291 12.6851 50.5623 12.75H31.8123C29.1187 12.7247 26.4513 13.2801 23.9917 14.3783C21.5321 15.4766 19.338 17.0919 17.5587 19.1143C15.7795 21.1367 14.4569 23.5187 13.681 26.0982C12.905 28.6777 12.694 31.3941 13.0623 34.0625C16.3919 60.2462 28.35 84.5743 47.0476 103.204C65.7452 121.834 90.1167 133.703 116.312 136.938H118.687C123.296 136.944 127.746 135.253 131.187 132.188C133.165 130.419 134.744 128.251 135.821 125.827C136.899 123.403 137.45 120.778 137.437 118.125V99.375C137.361 95.0337 135.78 90.8535 132.964 87.5479C130.149 84.2424 126.274 82.0165 122 81.25ZM125.125 118.75C125.124 119.637 124.934 120.514 124.567 121.323C124.201 122.131 123.666 122.852 123 123.438C122.301 124.041 121.485 124.491 120.602 124.76C119.72 125.029 118.791 125.111 117.875 125C94.4679 121.999 72.7263 111.291 56.0793 94.5644C39.4323 77.8381 28.8273 56.0459 25.9373 32.625C25.8378 31.7095 25.925 30.7833 26.1935 29.9025C26.4621 29.0216 26.9065 28.2043 27.4998 27.5C28.0855 26.8334 28.8064 26.299 29.6146 25.9326C30.4229 25.5662 31.2999 25.3762 32.1873 25.375H50.9373C52.3907 25.3427 53.8099 25.818 54.9507 26.7192C56.0914 27.6204 56.8823 28.8911 57.1873 30.3125C57.4373 32.0209 57.7498 33.7084 58.1248 35.375C58.8468 38.6697 59.8076 41.9074 60.9998 45.0625L52.2498 49.125C51.5016 49.4683 50.8287 49.9559 50.2695 50.56C49.7104 51.1641 49.276 51.8726 48.9915 52.645C48.7069 53.4174 48.5777 54.2384 48.6113 55.0608C48.6449 55.8832 48.8407 56.6909 49.1873 57.4375C58.1823 76.7048 73.6701 92.1925 92.9373 101.188C94.4589 101.813 96.1656 101.813 97.6873 101.188C98.4667 100.909 99.183 100.478 99.7946 99.92C100.406 99.362 100.901 98.6882 101.25 97.9375L105.125 89.1875C108.356 90.343 111.653 91.3031 115 92.0625C116.666 92.4375 118.354 92.75 120.062 93C121.484 93.305 122.754 94.0959 123.656 95.2366C124.557 96.3774 125.032 97.7966 125 99.25L125.125 118.75Z" fill="#AD3D3D"/>
</svg>
